{"glyphs":{":":{"x_min":0,"x_max":293,"ha":293,"o":"m 246 477 l 237 489 q 218 479 198 479 q 175 479 157 499 q 137 521 124 538 l 47 496 q 67 458 81 441 q 101 415 133 415 q 156 415 173 430 q 193 444 212 456 q 230 467 246 477 z m 246 62 l 237 73 q 218 63 198 63 q 175 63 157 83 q 133 111 124 122 l 47 80 q 67 43 81 25 q 100 0 133 0 q 156 0 173 14 q 193 28 212 40 q 230 52 246 62 z"},"$":{"x_min":0,"x_max":391,"ha":391,"o":"m 353 292 q 353 323 344 349 q 330 391 309 391 q 305 391 270 362 q 235 333 216 333 q 198 333 188 343 q 125 406 125 453 q 125 479 143 479 q 147 479 181 450 q 215 421 235 421 q 248 421 261 428 q 263 430 273 438 q 283 446 300 462 q 336 496 336 503 q 336 503 334 509 q 333 509 327 507 q 313 496 297 496 q 280 496 262 508 q 247 521 232 532 q 230 538 228 539 q 211 542 207 542 l 207 604 l 188 604 l 188 537 q 101 469 68 428 q 59 417 59 395 q 59 388 60 384 q 60 379 61 375 q 70 347 98 313 q 129 273 156 273 q 174 273 206 300 q 237 327 240 327 q 253 327 265 304 q 278 277 278 238 q 278 163 253 150 q 209 225 142 225 q 115 225 83 203 q 53 183 38 159 q 40 159 44 160 q 49 162 54 164 q 60 165 65 166 q 70 168 73 168 q 88 168 96 165 q 139 146 163 111 q 171 99 176 91 q 181 83 183 78 l 183 9 l 200 9 l 200 93 q 243 124 266 141 q 353 207 353 292 z"},"?":{"x_min":0,"x_max":415,"ha":415,"o":"m 387 594 q 387 627 363 689 q 353 713 309 756 q 260 803 237 803 q 235 803 176 765 q 154 751 138 741 q 123 731 113 725 q 85 708 68 698 q 50 687 43 683 q 38 671 38 665 l 42 624 q 43 607 44 596 q 44 586 44 582 q 44 576 43 556 q 42 537 40 504 q 60 512 81 535 q 105 562 110 579 q 123 639 125 659 q 125 673 125 687 q 125 701 124 715 q 132 735 158 735 q 184 735 227 701 q 247 685 264 665 q 281 645 295 622 q 327 569 327 524 q 327 491 307 460 q 287 430 237 372 q 187 315 168 282 q 139 235 139 191 q 139 130 161 130 q 168 130 176 137 q 222 177 222 181 l 222 186 q 208 200 208 227 q 208 290 246 348 q 268 379 284 400 q 299 422 308 433 q 324 455 337 474 q 350 494 361 511 q 387 552 387 594 z m 289 62 q 273 52 260 52 q 241 52 210 67 q 179 83 177 83 q 165 83 134 53 q 108 29 103 20 q 152 -15 188 -15 q 207 -15 245 15 q 279 43 289 62 z"},"<":{"x_min":0,"x_max":488,"ha":488,"o":"m 430 36 l 430 93 l 135 226 l 430 358 l 430 415 l 58 249 l 58 202 z"},"'":{"x_min":0,"x_max":244,"ha":244,"o":"m 186 683 q 186 712 166 744 q 146 778 122 792 q 102 779 86 770 q 71 760 58 752 q 118 704 118 621 q 118 585 99 547 l 107 542 q 186 651 186 683 z"},"=":{"x_min":0,"x_max":488,"ha":488,"o":"m 430 263 l 430 317 l 58 317 l 58 263 z m 430 126 l 430 181 l 58 181 l 58 126 z"},"a":{"x_min":0,"x_max":431,"ha":431,"o":"m 430 73 l 428 79 q 413 78 406 86 q 347 168 347 183 l 347 421 q 347 438 368 470 l 368 475 q 339 482 323 493 l 208 567 q 165 532 138 510 q 111 489 99 480 q 64 453 64 420 q 64 392 87 392 q 102 392 102 431 q 102 464 117 478 q 121 481 126 484 q 131 488 136 493 q 172 480 206 457 q 253 424 263 408 l 263 363 q 234 355 212 350 q 190 345 176 341 q 153 336 138 332 q 122 328 112 324 q 81 317 63 317 q 61 315 60 314 q 59 312 58 311 q 63 294 63 289 l 63 146 q 63 115 42 84 q 70 76 98 51 q 130 22 128 -2 l 134 -7 q 159 10 172 20 q 186 29 188 31 q 202 43 214 55 q 227 67 238 79 q 249 89 258 95 q 267 101 272 105 q 283 85 290 71 q 298 57 303 50 q 317 36 327 25 q 337 14 345 6 z m 263 116 l 212 73 l 146 138 q 155 172 153 246 q 151 288 162 320 l 263 347 z"},"L":{"x_min":0,"x_max":482,"ha":482,"o":"m 520 91 l 520 99 l 512 99 q 484 74 432 74 q 388 74 294 101 l 294 700 l 279 700 l 279 105 q 245 115 222 122 q 200 128 188 132 q 174 134 163 136 q 152 138 144 139 q 136 140 138 145 q 229 224 229 331 q 229 358 224 410 q 220 461 210 539 q 203 590 200 617 q 197 644 197 648 q 197 711 233 728 q 248 733 254 733 q 273 733 320 711 q 368 689 387 689 q 411 689 449 712 q 453 714 466 724 q 480 735 505 752 q 500 756 497 758 q 494 761 493 762 q 473 755 458 755 q 448 755 405 776 q 362 798 330 798 q 311 798 306 794 q 258 763 216 730 q 174 697 137 661 q 134 658 130 651 q 127 644 124 636 q 121 627 120 619 q 118 611 118 605 q 118 590 120 569 q 121 548 125 521 q 133 463 141 439 q 112 440 90 432 q 63 422 23 380 q 10 367 10 364 l 10 358 q 41 376 74 376 q 111 376 132 329 q 147 293 147 257 q 147 166 110 147 q 96 144 86 142 q 76 141 68 140 q 56 136 45 128 q 39 124 28 116 q 17 108 1 94 q -32 65 -32 58 l -32 53 q -32 53 -28 51 q -3 69 27 69 q 94 69 166 46 l 279 9 l 279 -56 l 294 -56 l 294 6 q 325 0 356 0 q 397 0 430 21 q 438 25 520 91 z"},"3":{"x_min":0,"x_max":459,"ha":459,"o":"m 422 655 l 420 658 q 418 658 407 658 q 397 658 380 657 l 361 657 l 250 662 l 140 676 q 128 666 89 620 q 75 601 66 586 q 56 572 49 561 q 51 560 54 560 q 57 559 59 557 q 80 578 88 582 q 99 588 114 587 l 278 574 q 308 571 353 585 l 354 580 q 309 517 276 478 q 243 438 220 419 q 194 397 173 382 q 152 367 136 357 l 142 346 q 162 356 167 356 q 187 356 241 331 q 288 311 303 301 q 313 296 314 289 q 319 271 319 212 q 319 154 318 122 q 318 90 317 82 q 310 72 301 72 q 300 73 293 78 q 286 84 273 95 q 259 108 248 116 q 238 125 231 129 q 212 137 198 143 q 184 149 174 151 q 162 154 143 154 q 129 154 84 134 q 61 123 47 116 q 33 108 28 106 q 75 105 135 74 q 198 41 229 -5 l 234 -5 q 244 6 256 18 q 269 31 285 44 q 292 49 306 60 q 319 71 341 88 q 386 122 416 145 q 404 185 404 309 q 404 333 412 359 q 345 381 332 386 q 273 411 251 422 q 270 445 283 461 q 296 477 304 486 q 403 603 422 655 z"},";":{"x_min":0,"x_max":293,"ha":293,"o":"m 246 477 l 237 489 q 218 479 198 479 q 175 479 157 499 q 137 521 124 538 l 47 496 q 67 458 81 441 q 101 415 133 415 q 156 415 173 430 q 193 444 212 456 q 230 467 246 477 z m 206 20 q 207 63 174 113 l 161 113 l 87 57 l 88 51 q 133 22 133 -38 q 134 -84 87 -131 l 93 -136 q 101 -129 108 -122 q 114 -116 120 -111 q 140 -91 154 -76 q 169 -61 179 -51 q 206 -20 206 20 z"},"J":{"x_min":0,"x_max":470,"ha":470,"o":"m 435 727 l 435 733 q 435 734 430 734 q 422 734 405 717 q 315 643 315 574 q 315 552 323 546 l 323 542 l 321 539 q 304 545 297 545 q 279 545 241 516 l 241 692 l 265 692 q 270 691 272 691 q 275 691 276 691 q 320 689 354 707 q 374 720 391 731 q 408 742 422 752 q 433 760 433 766 q 433 770 429 773 l 423 773 q 404 751 372 751 q 360 751 344 753 q 327 755 305 759 q 261 766 241 776 l 241 814 l 225 814 l 225 778 q 188 783 170 786 q 153 788 155 788 q 123 788 104 777 q 44 739 20 715 q -20 678 -20 635 q -20 617 -6 617 q -1 617 11 631 q 23 644 23 650 q 29 695 38 708 q 52 731 88 731 q 118 731 145 723 l 217 701 q 220 700 224 698 l 224 495 l 206 468 q 188 439 187 433 l 195 431 q 195 434 205 442 q 215 449 219 449 q 221 449 224 446 l 224 367 q 216 356 209 346 q 202 335 195 325 l 199 321 q 207 324 212 326 q 217 327 219 328 q 223 328 224 327 l 224 44 l 242 44 l 242 331 l 257 331 q 270 331 293 317 q 327 298 327 212 q 327 141 313 80 q 292 -7 152 -7 q 57 -7 34 19 q 29 36 30 42 q 25 40 23 37 q -5 -31 -5 -41 q -5 -77 96 -77 q 141 -77 176 -62 q 231 -40 282 6 q 367 83 386 147 q 399 189 399 301 q 399 327 398 364 q 397 402 395 453 q 392 555 392 605 q 392 694 435 727 z m 322 418 l 319 406 q 312 416 298 416 q 285 416 242 386 l 242 465 q 245 464 256 466 q 268 468 270 468 q 311 468 322 418 z"},"V":{"x_min":0,"x_max":662,"ha":662,"o":"m 679 774 q 675 776 674 777 q 639 751 604 751 q 577 751 532 773 q 484 796 466 796 q 442 796 414 768 l 364 719 l 364 713 l 368 709 q 390 728 400 728 q 445 728 464 673 q 492 601 492 477 l 492 413 q 492 330 460 214 q 452 182 433 146 q 401 83 369 83 q 353 83 345 87 q 327 94 294 136 l 294 765 q 309 780 317 793 q 316 794 315 794 q 314 795 313 796 q 306 792 302 788 q 297 785 294 783 l 294 825 l 279 825 l 279 773 q 260 763 231 763 q 209 763 157 774 q 107 786 83 786 q 27 786 -24 731 q -34 721 -36 717 q -36 712 -33 711 q -31 712 -26 714 q -21 715 -13 718 q 2 723 10 723 q 27 723 81 708 q 135 693 160 693 l 176 693 q 138 670 138 589 l 138 475 q 138 470 133 467 q 100 465 41 378 q 34 370 36 364 q 64 380 78 380 q 132 380 137 291 q 140 207 140 165 q 145 163 148 161 q 150 159 152 158 q 156 148 163 136 q 170 125 180 111 l 218 62 q 248 21 276 2 q 284 0 296 0 q 322 0 364 39 q 375 51 383 60 q 391 68 395 73 q 419 90 457 139 q 476 162 488 180 q 501 199 508 213 q 526 251 541 316 q 565 422 565 546 q 565 575 564 598 q 563 620 561 637 q 561 640 559 648 q 557 658 556 662 q 555 667 555 667 l 555 679 q 555 680 563 682 q 587 688 622 717 q 640 733 654 745 q 667 757 675 765 q 680 770 679 774 z m 279 157 l 252 193 q 212 245 212 333 l 212 647 q 212 686 233 712 q 235 715 247 724 q 259 734 279 751 z"},"\"":{"x_min":0,"x_max":391,"ha":391,"o":"m 352 683 q 352 712 332 744 q 312 778 288 792 q 268 779 252 770 q 237 760 224 752 q 283 705 283 621 q 283 584 265 547 l 273 542 q 352 651 352 683 z m 167 683 q 167 712 147 744 q 127 778 103 792 q 83 779 67 770 q 51 760 39 752 q 98 704 98 621 q 98 584 80 547 l 88 542 q 167 651 167 683 z"},"7":{"x_min":0,"x_max":464,"ha":464,"o":"m 477 681 l 464 690 q 451 663 438 660 q 401 650 331 650 q 317 650 296 652 q 274 653 245 657 q 216 661 195 663 q 174 665 160 665 q 134 665 112 656 q 118 667 122 674 q 126 680 128 684 l 115 687 q 28 568 28 550 q 34 547 41 547 q 51 567 66 574 q 81 580 102 578 l 275 563 q 308 561 359 573 q 371 575 375 576 q 355 537 311 487 q 218 377 177 304 q 122 207 122 119 q 122 34 171 3 q 196 -12 208 -12 q 232 -12 306 80 l 302 84 q 286 73 271 73 q 234 73 213 113 q 196 145 196 186 q 196 250 231 328 q 267 404 308 459 q 387 561 419 600 q 437 623 450 640 q 463 657 471 668 q 476 678 477 681 z"},"S":{"x_min":0,"x_max":555,"ha":555,"o":"m 534 811 q 534 835 500 835 q 440 835 379 768 q 358 747 355 745 q 343 745 318 764 q 294 783 294 794 q 292 798 292 799 l 286 799 q 275 792 267 787 q 259 782 254 779 q 215 750 188 728 q 160 706 143 690 q 79 632 67 584 q 63 576 62 571 q 57 562 59 550 q 60 538 65 524 q 70 511 77 498 q 84 485 94 474 q 103 462 113 455 q 145 432 177 417 q 196 409 210 402 q 223 396 232 392 q 248 385 254 380 l 254 371 l 254 355 l 254 329 q 237 331 230 332 q 223 333 225 333 q 184 333 161 292 q 132 242 132 239 q 132 239 134 233 l 140 233 q 144 244 160 254 q 175 263 187 263 q 182 263 202 260 q 211 259 220 253 q 230 247 238 239 q 245 231 250 221 q 254 211 254 202 l 254 90 q 193 128 130 128 q 63 128 0 61 q -15 46 -15 34 q -15 15 -4 15 q 1 15 2 22 q 1 34 13 57 q 20 70 50 70 q 88 70 139 46 q 189 22 216 -5 q 218 -7 225 -7 q 231 -7 255 0 l 255 -80 l 269 -80 l 269 4 q 299 23 325 34 q 415 84 454 129 q 520 202 520 265 q 520 357 418 416 l 354 448 q 331 459 314 468 q 297 476 286 481 q 286 501 289 524 q 292 548 297 576 q 311 643 330 659 q 337 660 342 660 q 347 660 349 661 q 430 668 515 767 q 534 789 534 811 z m 506 789 q 506 757 454 738 q 437 732 412 732 q 391 732 378 736 q 375 740 375 742 q 375 749 396 769 q 414 787 418 790 q 450 813 475 813 q 506 813 506 789 z m 312 661 q 283 598 269 487 q 137 533 137 613 q 137 660 203 719 q 221 701 260 680 q 277 673 290 668 q 302 664 312 661 z m 435 219 q 435 169 409 123 q 378 71 326 55 q 318 52 313 50 q 308 49 306 48 q 302 48 296 52 q 290 55 284 60 q 279 64 274 70 q 270 75 270 79 l 270 375 q 312 356 340 340 q 367 325 383 313 q 435 273 435 219 z"},"}":{"x_min":0,"x_max":293,"ha":293,"o":"m 245 233 q 201 246 188 275 q 175 297 175 346 l 175 523 q 175 605 140 637 q 112 662 48 662 l 48 650 q 100 628 100 528 l 100 361 q 100 302 116 277 q 135 246 195 234 l 195 232 q 136 220 116 188 q 100 163 100 105 l 100 -61 q 100 -161 48 -183 l 48 -195 q 112 -195 140 -170 q 175 -138 175 -56 l 175 120 q 175 169 188 191 q 201 219 245 233 z"},"Z":{"x_min":0,"x_max":660,"ha":660,"o":"m 623 763 l 623 773 q 623 773 619 775 q 572 754 541 754 q 501 754 426 772 q 353 791 313 791 q 186 791 68 679 q 21 635 21 594 q 21 555 57 555 q 76 555 108 583 q 137 606 149 625 l 136 625 q 123 625 113 636 q 103 648 103 663 q 103 677 120 700 q 147 736 193 736 q 213 736 303 711 q 390 688 418 688 q 456 688 519 708 q 521 708 521 701 q 521 676 438 539 q 427 521 404 495 q 394 481 386 469 q 378 457 370 446 q 290 452 294 452 q 290 452 280 450 q 271 449 267 449 q 210 449 121 379 q 112 368 111 364 q 157 385 211 385 q 231 385 253 384 q 275 382 300 378 q 302 376 304 376 q 287 351 262 320 q 236 290 201 255 l 79 132 q 77 122 77 126 l 85 126 q 93 126 154 187 q 185 218 196 232 q 234 270 258 295 q 282 320 293 331 q 359 404 397 447 q 435 490 446 503 q 466 526 490 558 q 515 589 544 630 q 623 739 623 763 z m 629 452 l 629 459 q 624 465 618 465 q 623 465 612 462 q 602 460 579 454 q 551 447 529 447 l 464 447 q 505 502 536 542 q 566 583 587 610 q 595 624 596 629 q 592 633 589 633 q 575 625 570 624 q 532 570 500 529 q 468 488 442 458 q 371 374 343 341 q 320 314 304 296 q 287 277 276 266 q 244 234 210 202 q 177 171 142 140 l 60 80 q -4 32 -4 21 l -4 13 q 38 33 65 33 q 100 33 222 -2 q 343 -38 405 -38 q 464 -38 504 -7 l 618 77 q 624 82 626 85 l 626 91 l 612 93 q 567 48 467 48 q 408 48 326 69 l 187 105 q 170 107 156 108 q 143 109 132 109 l 141 118 q 210 179 258 224 q 305 269 333 299 q 356 325 372 343 q 389 361 398 371 q 416 372 418 374 q 421 374 428 373 q 434 372 437 372 q 514 372 573 419 q 592 435 629 452 z"},"x":{"x_min":0,"x_max":469,"ha":469,"o":"m 496 570 l 496 576 q 455 543 423 543 q 396 543 376 557 q 354 573 357 573 q 350 573 323 539 q 297 504 297 497 q 297 496 305 482 q 314 470 314 468 q 314 464 293 412 q 283 386 278 372 q 272 359 270 357 q 244 427 234 453 q 189 573 123 573 q 105 573 85 556 q 83 554 73 544 q 63 534 45 517 q 28 500 28 496 q 28 492 32 488 l 37 488 q 49 500 64 500 q 102 500 132 442 q 140 423 147 406 q 154 389 161 373 q 172 345 172 343 l 175 333 q 158 328 151 327 q 103 299 84 279 q 91 280 106 280 q 121 280 145 280 q 188 280 193 279 q 200 263 204 250 q 208 238 210 229 l 151 107 l 148 109 q 111 134 83 134 q 36 134 11 70 q 16 65 21 65 q 43 62 68 43 q 98 22 102 0 q 106 -4 107 -6 q 114 2 120 10 q 125 17 130 25 q 171 84 172 90 l 174 118 q 177 125 180 130 q 206 184 218 209 q 238 158 250 128 q 261 98 265 88 q 276 63 282 50 q 288 36 290 34 q 311 -1 338 -1 q 369 -1 404 35 q 423 56 437 72 q 451 87 460 98 q 457 104 456 104 q 418 76 407 76 q 384 76 369 96 q 362 106 357 114 q 352 122 350 129 q 336 158 324 188 q 313 218 302 247 q 293 271 293 278 q 293 282 295 284 q 323 294 373 335 q 374 338 374 341 l 374 344 q 351 334 305 334 q 288 334 280 342 q 279 342 279 343 l 314 432 q 318 440 322 448 q 325 455 330 461 q 337 461 352 459 q 367 457 374 457 q 407 457 443 500 q 461 523 474 540 q 488 558 496 570 z"},")":{"x_min":0,"x_max":293,"ha":293,"o":"m 188 447 q 188 592 185 637 q 182 692 174 738 q 167 785 156 825 q 136 890 98 890 q 86 890 49 859 q 8 823 -4 808 l 0 803 q 35 835 44 835 q 72 835 86 805 q 124 718 124 457 q 124 337 117 230 q 110 124 96 29 q 88 -21 64 -47 q 49 -62 33 -75 l 38 -84 q 76 -51 100 -30 q 124 -9 135 0 q 156 18 162 60 q 175 151 182 247 q 188 343 188 447 z"},"&":{"x_min":0,"x_max":575,"ha":575,"o":"m 597 370 q 597 374 595 374 q 564 351 539 351 l 449 360 q 427 360 410 350 q 401 345 380 325 q 356 304 356 300 q 356 296 358 296 q 384 295 398 293 q 423 292 423 268 q 423 256 412 231 q 401 206 393 198 q 390 203 388 206 q 386 208 385 210 q 362 252 344 288 q 326 323 312 354 l 271 443 q 278 451 282 455 q 285 459 285 459 q 332 516 342 532 q 359 561 359 598 q 359 660 309 727 q 301 727 295 725 q 270 701 252 684 q 234 666 223 655 q 206 639 194 628 q 183 616 175 608 q 167 600 160 594 q 154 588 149 584 q 125 563 125 558 q 125 548 140 539 q 145 527 151 514 q 157 502 162 489 q 193 411 193 404 q 193 391 153 372 q 118 355 93 351 q 76 348 64 346 q 53 345 46 344 q 49 320 52 310 q 53 291 54 280 q 54 269 54 265 l 52 152 q 52 135 55 128 q 60 117 62 112 q 65 106 66 104 q 105 45 127 27 q 161 0 217 0 q 250 0 273 26 q 293 52 312 70 q 330 89 346 102 q 370 70 382 54 q 394 37 394 37 q 431 -9 459 -9 q 479 -9 503 20 q 517 37 526 50 q 536 62 543 70 q 545 78 545 78 q 519 63 512 63 q 494 63 456 104 q 452 109 444 123 q 437 137 424 160 q 406 191 406 176 q 406 176 416 198 q 421 209 426 218 q 430 228 432 236 q 437 251 441 263 q 445 275 448 284 q 470 281 477 281 q 497 281 517 293 q 527 299 562 332 q 597 365 597 370 z m 295 525 q 295 487 265 454 q 232 534 218 568 q 204 603 201 608 q 234 652 243 652 q 251 652 262 634 q 295 583 295 525 z m 333 119 q 333 102 296 83 q 282 77 263 77 q 247 77 208 88 q 191 93 161 126 q 134 157 134 176 l 134 349 l 202 383 q 234 316 256 270 q 278 223 291 197 q 322 134 333 119 z"},"_":{"x_min":0,"x_max":500,"ha":500,"o":"m 500 -124 l 500 -74 l 0 -74 l 0 -124 z"},"v":{"x_min":0,"x_max":430,"ha":430,"o":"m 436 561 q 436 563 433 566 q 404 551 377 551 q 364 551 342 556 q 296 567 303 567 q 291 567 262 539 q 233 510 233 500 q 233 495 253 472 q 275 446 277 445 q 285 431 289 422 q 293 413 295 410 q 310 356 310 308 q 310 295 308 274 q 306 252 302 221 q 297 200 294 182 q 290 165 286 151 q 281 137 268 115 q 251 86 240 86 q 231 86 218 110 q 213 118 210 124 q 206 131 204 135 q 184 165 177 177 q 172 190 171 196 l 165 420 q 164 439 162 458 q 161 477 158 497 q 155 516 134 540 q 113 566 95 566 q 91 566 12 498 l 12 491 q 33 492 51 468 q 66 448 69 429 q 90 310 90 226 q 90 205 89 187 q 88 169 86 155 q 85 151 82 140 q 79 129 79 126 q 79 123 82 119 q 98 107 116 81 q 120 76 143 36 q 145 31 148 26 q 151 20 155 13 q 165 0 177 0 q 189 0 257 69 q 264 79 269 87 q 274 95 276 101 q 290 118 300 132 q 310 145 317 153 q 329 173 338 192 q 347 210 354 226 q 387 308 387 392 q 387 398 386 414 q 384 430 380 456 q 380 459 376 470 q 373 482 373 485 q 373 491 391 505 q 396 508 401 512 q 406 515 411 519 q 436 545 436 561 z"},"O":{"x_min":0,"x_max":792,"ha":792,"o":"m 740 409 q 740 445 728 495 q 697 619 609 676 q 569 703 524 726 q 426 775 428 813 q 413 805 388 772 q 364 739 364 723 q 364 712 375 688 q 382 674 386 665 q 390 656 391 651 q 403 595 403 521 q 403 462 394 428 q 381 376 345 353 l 345 787 l 329 787 l 329 344 q 301 328 271 280 q 262 265 262 260 q 262 253 281 254 q 303 256 329 279 l 329 125 q 320 130 311 136 q 302 142 292 149 q 202 211 170 283 q 146 338 146 427 q 146 500 171 596 q 175 612 183 629 q 191 646 202 665 q 228 707 251 718 q 287 733 287 739 l 287 744 q 285 746 283 748 q 281 749 280 750 q 262 743 256 739 q 184 685 158 658 q 53 551 53 372 q 53 243 121 163 q 199 70 296 30 q 306 25 329 21 l 329 -45 l 345 -45 l 345 18 l 383 12 q 426 12 459 26 q 483 37 547 80 q 564 92 583 107 q 602 122 622 141 q 679 195 700 237 q 740 316 740 409 z m 675 341 q 675 243 632 179 q 604 137 561 112 q 515 84 468 84 q 411 84 345 117 l 345 294 q 349 300 350 301 q 382 360 397 392 q 454 513 454 611 q 454 630 451 653 q 459 650 466 648 q 473 645 478 643 q 561 608 618 520 q 675 431 675 341 z"},"(":{"x_min":0,"x_max":293,"ha":293,"o":"m 295 -2 l 290 1 q 255 -29 246 -29 q 219 -29 205 0 q 167 88 167 348 q 167 586 194 775 q 201 826 226 852 q 234 861 242 868 q 249 876 257 881 l 252 890 q 207 849 183 828 q 159 807 156 805 q 135 785 129 745 q 116 654 110 558 q 103 462 103 358 q 103 281 104 234 q 104 186 105 167 q 109 62 134 -19 q 154 -84 192 -84 q 203 -84 241 -54 q 261 -36 274 -23 q 287 -10 295 -2 z"},"C":{"x_min":0,"x_max":675,"ha":675,"o":"m 674 170 l 667 177 q 626 127 604 113 q 544 77 472 77 q 442 77 425 81 l 425 629 l 408 629 l 408 81 q 301 103 254 147 q 285 175 297 187 q 331 218 345 267 q 361 324 361 512 l 361 708 l 374 719 q 379 714 383 710 q 387 706 392 702 q 439 658 494 658 q 530 658 616 726 q 626 736 632 742 q 638 748 641 752 l 634 758 q 608 729 564 729 q 527 729 496 743 q 455 768 436 782 q 426 774 418 767 q 411 760 404 755 q 324 693 311 688 q 287 680 274 678 q 282 648 282 627 l 282 472 q 278 470 274 468 q 271 466 266 465 q 237 458 223 439 q 209 422 200 411 q 191 400 186 394 l 188 390 q 204 400 219 400 q 249 400 266 359 q 276 332 276 292 q 276 183 242 152 q 194 192 166 258 q 139 319 139 386 q 139 445 168 544 q 194 632 216 666 q 235 690 246 699 l 240 712 l 120 619 q 107 581 98 554 q 88 526 81 507 q 60 441 60 356 q 60 76 338 5 q 372 -2 408 -1 l 408 -58 l 425 -58 l 425 -1 q 439 0 452 1 q 464 2 476 4 q 523 15 562 52 q 641 134 674 170 z"},"W":{"x_min":0,"x_max":871,"ha":871,"o":"m 877 778 q 877 811 845 811 q 831 811 818 802 q 672 694 672 554 q 672 502 694 404 q 716 306 716 252 q 716 202 704 159 q 681 78 636 78 q 629 78 620 80 q 612 83 588 96 q 563 111 563 117 l 563 436 q 576 447 586 456 q 595 464 600 469 l 600 475 q 592 473 586 472 q 580 470 576 468 q 572 467 568 467 q 565 467 563 467 l 563 768 l 545 768 l 545 465 q 532 464 524 464 q 517 463 513 463 l 486 462 l 486 644 q 495 702 504 719 q 493 734 481 750 q 469 765 457 782 q 449 791 435 791 q 428 791 426 790 q 416 787 396 771 q 368 752 368 740 l 387 705 q 406 671 406 639 l 406 463 q 396 462 386 462 q 377 462 368 462 q 361 462 345 459 q 340 458 330 454 q 319 449 303 439 q 263 417 263 400 q 263 397 266 396 q 288 406 325 405 l 406 403 l 406 169 q 406 113 358 88 q 340 80 330 80 q 301 80 258 132 q 225 173 217 190 q 208 211 208 257 l 208 621 q 208 661 229 717 q 245 744 255 757 l 251 761 q 216 758 210 758 q 186 758 135 775 q 86 792 61 792 q 32 792 9 778 q 4 774 -9 762 q -22 751 -42 732 q -51 724 -51 715 q -51 713 -49 711 l -44 711 q -26 719 -8 719 q 11 719 106 690 q 128 683 142 683 q 162 683 179 694 q 180 693 178 688 q 130 611 130 549 l 130 470 q 109 474 79 441 q 73 434 62 420 q 52 406 36 384 q 39 384 45 385 q 51 386 58 388 q 64 389 70 390 q 76 392 79 392 q 130 392 130 327 q 131 270 130 238 q 130 206 129 197 l 127 182 q 126 177 126 174 q 125 170 125 168 q 125 164 129 157 q 137 157 140 150 q 151 120 186 68 q 232 -2 269 -2 q 302 -2 352 48 q 375 73 392 92 q 409 110 420 123 q 424 121 429 114 q 445 82 479 49 q 517 13 545 0 l 545 -55 l 563 -55 l 563 -6 q 587 5 603 11 q 651 51 696 107 q 736 156 767 238 q 783 277 783 351 q 783 397 762 492 q 741 586 741 635 q 741 663 748 688 q 758 734 781 734 q 792 734 803 724 q 814 713 814 702 q 814 696 806 675 l 809 675 l 814 675 q 833 700 848 718 q 862 737 872 750 q 877 760 877 778 z m 545 135 q 486 185 486 245 l 486 405 q 503 412 516 417 q 529 422 538 425 l 545 429 z"},"A":{"x_min":0,"x_max":619,"ha":619,"o":"m 625 78 l 621 83 q 593 61 578 61 q 544 61 521 120 q 504 168 490 232 q 477 295 469 375 q 462 449 457 504 q 452 558 449 595 q 439 707 378 763 q 338 800 294 800 q 251 800 211 751 q 197 734 184 716 q 171 699 158 682 l 163 677 q 176 690 186 698 q 195 705 202 709 q 218 718 239 718 q 279 718 316 683 q 311 676 302 666 q 294 657 281 643 q 271 632 261 616 q 251 601 241 579 q 231 559 225 541 q 219 523 216 508 q 211 485 208 462 q 204 439 202 416 q 181 403 165 389 q 149 371 136 356 q 124 341 116 330 l 121 327 q 139 345 160 345 q 173 345 191 338 q 177 261 164 227 q 132 142 84 85 q 55 64 42 61 l -5 -21 l -2 -25 q 23 -10 63 -10 q 71 -10 84 -12 q 98 -13 115 -15 q 132 -17 146 -18 q 159 -20 168 -20 q 196 -20 214 -2 q 222 6 227 14 q 232 21 236 26 q 251 48 262 63 q 272 78 278 87 l 274 90 q 249 59 212 59 q 201 59 174 62 q 148 65 104 72 q 149 153 165 190 q 182 231 194 267 q 207 303 215 335 q 227 333 237 332 q 247 330 255 330 q 270 330 317 345 l 383 400 q 405 220 416 169 q 455 -19 527 -19 q 548 -19 572 13 q 591 36 604 52 q 617 69 625 78 z m 382 412 q 357 408 340 406 q 324 404 315 404 q 301 404 280 406 q 258 409 228 414 q 236 454 242 484 q 249 514 254 535 q 275 624 302 650 l 325 673 q 350 653 362 596 q 368 567 374 498 z"},"f":{"x_min":0,"x_max":283,"ha":283,"o":"m 479 783 l 475 786 q 431 763 406 763 q 375 763 334 786 q 319 797 305 808 q 291 818 278 828 q 221 789 170 750 q 152 735 117 719 q 113 717 99 711 q 85 705 61 694 l 61 686 q 61 686 69 674 q 77 662 78 654 q 87 604 87 564 q 87 556 86 555 l 45 518 q 20 496 18 483 q 30 477 51 477 l 82 478 l 82 59 l 70 -114 q 68 -143 44 -169 q 18 -196 -9 -196 q -27 -196 -36 -190 q -38 -188 -42 -182 q -47 -177 -52 -169 q -64 -172 -75 -186 q -86 -201 -86 -214 q -86 -236 -60 -236 q -26 -236 33 -197 q 80 -166 117 -130 q 128 -122 134 -117 q 141 -112 145 -110 q 154 -105 164 -101 q 173 -97 183 -93 q 190 -89 190 -82 q 165 -66 165 -14 l 165 482 q 183 486 196 488 q 224 512 246 532 q 267 552 283 568 q 285 570 288 572 q 291 575 291 576 l 286 582 q 236 554 198 554 q 174 554 165 557 q 166 620 167 661 q 168 702 170 723 q 170 731 182 740 q 194 750 203 750 q 213 750 227 737 q 249 717 252 715 q 284 693 315 693 q 343 693 377 710 l 422 743 q 430 749 440 756 q 450 762 463 770 q 467 772 471 775 q 475 778 479 783 z"},"Q":{"x_min":0,"x_max":792,"ha":792,"o":"m 750 408 q 750 474 735 518 q 730 535 718 560 q 707 585 688 617 q 665 658 614 700 q 569 736 530 753 q 494 770 413 788 q 414 792 414 796 q 414 800 414 805 q 414 810 414 814 q 414 818 413 823 l 397 823 q 398 818 398 810 q 397 801 396 788 q 386 781 381 780 q 375 776 366 769 q 357 762 344 751 q 316 729 316 723 l 316 718 q 353 715 397 703 l 397 89 q 366 101 362 104 q 298 129 243 180 q 186 234 164 289 q 141 346 141 422 q 141 595 207 681 q 208 685 213 685 q 215 676 226 634 q 238 592 260 516 q 297 390 297 322 q 297 260 269 208 q 273 204 277 204 q 284 208 287 211 q 336 273 347 296 q 364 333 364 394 q 364 421 360 450 q 357 478 350 509 l 319 621 q 288 735 288 761 q 288 784 293 792 q 297 798 300 804 q 304 809 308 814 q 304 816 303 817 q 275 805 247 768 q 224 738 214 710 q 115 643 78 544 q 62 501 57 479 q 52 451 50 426 q 47 401 47 379 q 47 253 112 164 q 170 85 293 23 q 325 7 397 4 l 397 -29 l 413 -29 l 413 7 q 460 17 471 22 q 550 59 629 140 q 730 241 740 334 q 745 376 748 394 q 750 413 750 408 z m 802 -22 l 795 -22 q 793 -22 786 -25 q 779 -28 777 -29 q 769 -30 764 -30 q 758 -31 754 -31 q 729 -31 692 0 q 668 20 650 34 q 632 47 619 52 q 603 60 577 60 q 553 60 509 38 q 463 16 455 -3 q 457 -4 459 -6 q 460 -5 471 0 q 477 3 487 3 q 519 3 577 -37 q 636 -77 669 -77 q 699 -77 800 -32 q 803 -31 803 -26 q 803 -23 802 -22 z m 678 339 q 678 334 676 318 q 674 302 670 274 q 660 196 605 140 q 548 80 471 80 l 413 86 l 413 696 q 447 688 457 684 q 678 577 678 339 z"},"w":{"x_min":0,"x_max":632,"ha":632,"o":"m 648 559 q 648 562 645 564 q 616 549 583 549 q 570 549 511 559 q 509 560 504 562 q 498 564 495 564 q 486 564 477 555 q 429 505 429 500 q 429 492 433 489 q 467 464 480 427 q 499 374 499 306 q 499 269 487 212 q 479 176 468 141 q 449 83 432 83 q 422 83 406 104 q 368 152 364 160 q 355 182 355 226 l 355 382 q 355 401 356 426 q 358 450 362 480 q 362 510 327 550 q 311 569 297 569 q 293 569 263 539 q 229 505 229 500 q 231 496 244 480 q 252 470 257 463 q 262 456 264 451 q 271 434 273 415 q 274 407 274 395 q 274 383 274 369 l 274 148 q 274 131 262 106 q 260 104 258 100 q 255 95 250 89 q 239 77 235 77 l 230 77 q 219 94 211 106 q 203 119 197 126 q 166 162 163 167 q 160 176 160 206 l 160 447 q 160 452 163 462 q 166 472 166 477 q 166 501 146 532 q 122 567 92 567 q 79 567 48 536 q 17 505 17 493 q 54 486 67 435 q 72 415 74 403 q 78 374 80 350 q 82 327 82 309 l 82 188 q 82 180 73 131 q 72 127 67 114 q 62 102 62 101 q 62 99 65 96 q 108 78 143 21 q 150 9 152 1 q 157 -10 162 -12 q 170 -8 182 3 q 195 14 212 31 q 234 54 248 68 q 261 82 266 86 q 272 92 280 90 q 335 21 364 -12 l 372 -12 q 378 -2 382 6 q 387 13 391 18 q 440 69 472 104 q 504 139 519 159 q 542 191 559 261 q 573 326 573 379 q 573 399 567 437 q 567 440 562 458 q 557 476 557 475 q 557 479 573 485 q 593 494 594 495 q 603 503 610 510 q 617 516 622 521 q 648 549 648 559 z"},"-":{"x_min":0,"x_max":415,"ha":415,"o":"m 389 348 l 389 357 q 355 318 280 321 l 138 328 q 102 329 70 294 q 54 276 26 228 q 27 224 28 222 q 28 220 28 218 q 50 243 63 250 q 79 260 110 258 l 257 248 q 296 246 320 268 q 332 278 389 348 z"},"E":{"x_min":0,"x_max":515,"ha":515,"o":"m 528 745 q 528 750 521 750 q 498 740 475 740 q 445 740 393 755 q 342 771 317 771 q 291 771 254 744 q 240 733 226 722 q 212 710 198 699 l 180 744 q 165 777 140 777 q 82 777 23 715 l 23 711 q 29 709 59 714 q 91 714 108 679 q 121 653 121 615 l 121 490 q 116 491 102 491 q 55 491 10 417 q 10 418 12 412 q 30 417 42 417 q 90 417 105 376 q 115 353 115 301 q 115 212 89 174 q 83 165 74 160 q 66 155 56 152 q 47 149 38 147 q 30 145 25 144 q 16 143 -10 120 q -36 97 -36 91 l -36 84 q -23 82 -15 81 q -7 80 -5 79 l 124 30 q 187 6 233 0 l 236 0 l 236 -57 l 254 -57 l 254 -1 l 257 0 q 336 2 419 70 q 462 105 463 111 q 464 120 460 120 q 459 120 458 119 q 387 74 329 74 q 309 74 254 86 l 254 412 l 353 412 q 357 412 378 409 q 388 404 395 398 q 402 393 407 388 q 412 405 414 415 q 416 425 417 427 q 419 432 422 440 q 426 448 431 459 q 435 469 438 474 q 440 480 441 482 q 441 488 434 488 q 405 478 361 478 q 311 478 284 478 q 258 478 254 477 l 254 677 l 236 677 l 236 471 q 222 454 212 443 q 202 432 195 425 l 195 646 q 195 671 203 682 q 213 697 242 697 q 267 697 321 680 q 373 664 397 664 q 443 664 477 693 q 528 738 528 745 z m 236 90 l 227 93 q 219 93 159 115 q 96 139 85 147 q 105 159 125 178 q 167 217 181 273 q 188 298 191 373 q 192 386 193 394 q 194 402 195 404 q 200 412 220 412 q 222 412 226 412 q 230 412 236 411 z"},"s":{"x_min":0,"x_max":400,"ha":400,"o":"m 377 546 l 373 547 q 340 536 322 536 q 297 536 262 555 q 227 574 224 574 q 213 574 173 540 q 147 518 129 502 q 111 487 100 478 q 70 451 69 449 q 55 424 55 399 q 55 387 60 372 q 65 357 71 343 q 77 329 85 316 q 111 275 135 275 q 152 275 187 303 q 224 331 225 331 q 232 331 259 293 q 265 284 273 242 q 279 204 279 187 q 279 140 272 109 q 270 99 268 93 q 266 87 264 83 q 259 65 240 65 q 218 65 199 108 l 161 188 q 135 230 103 230 q 80 230 22 169 l 22 164 q 32 167 38 167 q 66 167 97 103 q 107 80 114 62 q 122 44 127 33 q 135 15 140 9 q 150 -3 165 -3 q 180 -3 241 47 q 250 54 256 59 q 263 64 267 66 q 277 75 284 82 q 290 88 295 93 q 305 100 310 105 q 359 133 359 258 q 359 320 334 369 q 322 393 308 393 q 300 393 299 392 q 280 378 229 350 q 225 348 215 348 q 202 348 186 358 q 174 365 152 410 q 131 455 131 472 q 131 507 152 507 q 156 507 187 488 q 219 469 243 469 q 273 469 305 489 q 314 496 377 546 z"},">":{"x_min":0,"x_max":488,"ha":488,"o":"m 430 202 l 430 249 l 58 415 l 58 358 l 354 226 l 58 93 l 58 36 z"},"l":{"x_min":0,"x_max":267,"ha":267,"o":"m 299 817 q 299 828 288 836 q 277 845 266 845 q 248 845 195 816 q 106 766 84 762 q 66 757 42 756 q 37 754 34 751 q 34 749 38 746 q 55 746 69 737 q 85 727 85 711 l 85 133 q 85 122 75 101 l 63 79 q 63 74 67 71 l 102 42 q 106 38 114 28 q 122 18 133 1 q 150 -23 158 -25 q 168 -19 182 -9 q 195 1 212 15 q 248 43 260 60 q 259 62 257 64 q 243 61 241 61 q 223 61 187 115 q 175 133 175 155 l 175 703 q 175 802 227 802 q 244 802 256 771 l 264 771 q 299 797 299 817 z"},"8":{"x_min":0,"x_max":459,"ha":459,"o":"m 419 257 q 420 300 378 322 q 319 349 291 361 q 284 365 285 368 q 348 407 402 408 q 404 409 404 410 q 405 411 406 412 l 406 467 q 406 502 409 528 l 412 573 q 416 593 418 600 q 419 607 419 602 q 419 608 416 613 q 318 628 251 674 q 245 679 240 684 q 236 688 232 692 q 231 690 226 688 q 174 618 59 572 q 59 568 60 559 q 61 550 63 535 l 63 409 q 63 382 105 361 l 168 331 q 152 315 116 307 q 72 296 56 288 q 56 274 56 256 q 57 237 58 212 l 58 184 q 56 134 55 121 q 55 117 52 108 q 49 99 49 95 q 49 87 55 84 q 89 68 112 57 q 136 46 149 40 q 160 35 171 24 q 182 14 195 0 q 200 -7 204 -12 q 208 -17 210 -20 l 214 -20 q 212 -20 214 -20 q 216 -19 221 -18 q 255 13 296 42 q 337 72 386 101 q 413 117 415 139 z m 325 559 q 314 527 313 486 l 311 417 q 309 409 301 405 q 263 381 256 381 q 248 381 217 396 q 203 403 194 406 q 186 410 184 412 q 158 432 154 452 q 152 466 150 480 q 149 493 149 505 l 149 529 q 150 543 150 554 q 150 565 150 573 q 148 579 156 594 q 164 614 176 614 q 180 613 199 601 q 222 587 231 583 q 276 563 325 559 z m 323 186 q 323 61 288 61 q 282 61 254 82 q 219 104 192 120 q 165 136 146 146 q 143 151 144 159 l 147 271 q 149 278 150 283 q 151 288 152 292 q 154 298 172 309 q 191 321 198 321 q 209 321 250 300 q 269 290 280 284 q 292 278 296 274 q 323 251 323 186 z"},"\\":{"x_min":0,"x_max":283,"ha":283,"o":"m 165 -14 l 165 557 q 166 620 167 661 q 168 702 170 723 q 170 731 182 740 q 194 750 203 750 q 213 750 227 737 q 249 717 252 715 q 284 693 315 693 q 343 693 377 710 l 422 743 q 430 749 440 756 q 450 762 463 770 q 467 772 471 775 q 475 778 479 783 l 475 786 q 431 763 406 763 q 375 763 334 786 q 319 797 305 808 q 291 818 278 828 q 221 789 170 750 q 152 735 117 719 q 113 717 99 711 q 85 705 61 694 l 61 686 q 61 686 69 674 q 77 662 78 654 q 87 604 87 564 q 87 556 86 555 l 45 518 q 20 496 18 483 q 30 477 51 477 l 82 478 l 82 59 l 70 -114 q 68 -143 44 -169 q 18 -196 -9 -196 q -27 -196 -36 -190 q -38 -188 -42 -182 q -47 -177 -52 -169 q -64 -172 -75 -186 q -86 -201 -86 -214 q -86 -236 -60 -236 q -26 -236 33 -197 q 80 -166 117 -130 q 128 -122 134 -117 q 141 -112 145 -110 q 155 -105 164 -101 q 173 -97 183 -93 q 190 -89 190 -82 q 165 -66 165 -14 z"},"e":{"x_min":0,"x_max":339,"ha":339,"o":"m 316 125 q 316 130 311 136 q 306 141 301 141 q 291 141 287 134 q 284 125 281 116 q 278 107 274 98 q 262 71 240 71 q 231 71 208 88 q 185 105 170 119 q 156 133 149 144 q 139 160 139 180 q 139 185 142 194 q 145 204 145 208 q 146 238 146 254 q 147 269 147 271 l 147 462 q 147 467 151 482 q 153 491 162 502 q 172 512 181 512 q 199 512 216 473 q 227 446 229 431 q 230 428 230 411 q 230 355 200 318 q 195 313 192 310 q 188 306 186 304 q 157 289 157 278 q 157 271 163 267 l 167 267 q 173 267 196 291 q 205 301 212 308 q 218 315 223 320 q 315 407 315 467 q 315 494 291 559 q 284 578 263 578 q 248 578 202 545 l 151 508 q 128 497 112 490 q 97 483 89 479 q 71 471 60 466 q 49 461 45 459 q 60 438 60 429 l 60 202 q 60 168 50 129 q 49 127 48 122 q 46 118 43 110 q 38 93 38 93 l 38 86 q 45 88 50 90 q 55 91 58 93 q 66 83 72 76 q 77 68 81 62 q 134 12 161 -9 q 184 8 198 18 q 211 27 215 29 q 235 43 248 53 q 262 63 270 68 q 316 104 316 125 z"},"b":{"x_min":0,"x_max":442,"ha":442,"o":"m 389 167 q 375 225 375 277 l 375 365 q 375 391 376 416 q 377 440 379 465 q 380 470 380 476 q 380 482 380 488 q 374 492 370 494 q 365 496 363 498 q 328 520 304 536 q 281 551 268 560 l 169 467 l 165 470 l 165 738 q 165 772 186 794 q 208 817 241 817 q 280 817 280 785 q 280 780 278 772 q 277 764 275 752 l 287 752 q 301 752 322 774 q 344 796 344 810 q 344 829 329 842 q 314 854 294 854 q 269 854 215 829 q 190 818 172 810 q 154 801 141 796 q 83 771 31 767 q 5 764 0 755 l 4 750 l 26 750 q 59 748 68 718 q 70 711 76 662 q 82 606 82 573 l 82 179 q 82 158 75 117 q 74 109 67 90 q 66 86 69 83 q 78 86 86 86 q 98 86 109 68 q 126 38 131 33 q 142 20 150 10 q 159 0 164 -7 q 177 1 186 8 q 195 14 201 19 q 214 29 226 40 q 237 50 248 63 q 264 74 271 77 q 294 91 312 101 q 329 111 341 118 q 366 137 389 167 z m 290 190 q 290 168 290 154 q 289 140 288 134 q 286 114 273 98 q 259 78 241 78 q 229 78 206 110 q 189 134 181 155 q 165 193 165 207 l 165 355 q 165 368 168 391 q 170 414 175 446 q 177 451 188 464 q 200 477 205 477 q 207 476 212 473 q 216 470 224 463 q 248 444 250 443 q 262 436 270 431 q 279 426 284 423 q 290 400 290 378 z"},"%":{"x_min":0,"x_max":708,"ha":708,"o":"m 659 64 q 652 82 652 105 l 652 271 q 652 287 657 307 q 648 307 623 328 q 612 337 603 344 q 594 350 588 355 l 570 355 q 499 295 422 295 q 429 282 429 266 l 429 80 q 429 62 420 40 q 439 40 495 -1 l 507 -1 q 578 63 659 64 z m 508 589 l 464 589 l 200 0 l 244 0 z m 288 299 q 282 318 282 340 l 282 506 q 282 522 287 542 q 279 542 252 563 q 241 573 232 580 q 223 586 218 591 l 199 591 q 131 530 51 530 q 58 517 58 501 l 58 308 q 52 291 49 275 q 70 275 124 233 l 136 233 q 206 296 288 299 z m 583 71 l 546 48 l 499 89 l 499 290 l 539 307 l 583 264 z m 212 306 l 176 283 l 128 324 l 128 525 l 167 542 l 212 499 z"},"m":{"x_min":0,"x_max":653,"ha":653,"o":"m 663 75 l 660 82 q 640 71 638 71 q 625 71 601 103 q 567 146 567 170 q 565 286 567 364 q 568 383 569 404 q 570 426 572 452 q 573 465 575 477 q 577 489 579 500 l 573 500 q 571 500 565 498 q 551 511 541 520 q 531 528 525 533 l 504 554 q 492 566 485 566 q 475 566 425 520 q 406 503 392 490 q 378 476 369 468 q 367 470 366 471 q 366 472 365 473 q 345 523 283 564 l 172 469 q 171 475 169 477 q 147 541 126 563 q 64 527 24 479 q 26 475 26 475 q 41 479 41 479 q 62 479 77 438 q 88 403 88 378 l 88 209 q 88 200 86 174 q 83 147 78 102 q 74 86 70 76 q 75 74 78 73 q 82 72 84 71 q 125 0 136 0 q 144 0 178 31 q 213 63 213 70 q 213 73 211 75 q 198 75 185 97 q 173 115 170 130 q 165 158 165 205 l 165 386 q 165 404 174 436 q 176 445 192 464 q 209 484 214 484 q 218 484 244 458 q 255 447 262 440 q 268 434 270 430 q 285 406 285 371 l 285 168 q 285 149 274 94 q 274 92 271 86 q 268 81 268 79 q 271 72 320 6 q 324 1 332 -1 q 388 31 415 70 q 372 105 368 120 q 366 137 365 150 q 364 162 364 170 l 364 373 q 364 399 373 431 q 378 449 390 465 q 404 488 417 488 q 427 488 469 452 q 474 445 477 440 q 480 434 482 429 q 488 412 488 349 l 488 224 q 488 173 479 128 q 477 120 474 112 q 472 103 469 93 q 480 85 490 74 q 500 64 510 51 q 515 43 521 36 q 527 28 532 20 q 548 1 563 1 q 578 1 619 34 q 646 58 663 75 z"},"#":{"x_min":0,"x_max":439,"ha":439,"o":"m 388 386 l 306 386 l 327 535 l 306 535 l 286 386 l 184 386 l 205 535 l 184 535 l 163 386 l 80 386 l 73 338 l 157 338 l 144 243 l 59 243 l 52 195 l 137 195 l 118 48 l 138 48 l 159 195 l 260 195 l 240 48 l 260 48 l 282 195 l 360 195 l 366 243 l 287 243 l 300 338 l 381 338 z m 279 338 l 266 243 l 164 243 l 178 338 z"},",":{"x_min":0,"x_max":293,"ha":293,"o":"m 206 20 q 207 61 174 113 l 161 113 l 87 57 l 88 51 q 133 22 133 -38 q 134 -84 87 -131 l 93 -136 q 103 -128 110 -122 q 116 -115 120 -111 q 139 -91 154 -76 q 168 -62 179 -51 q 206 -20 206 20 z"},"n":{"x_min":0,"x_max":454,"ha":454,"o":"m 463 79 l 463 84 q 452 83 448 82 q 444 82 446 82 q 431 82 408 108 q 384 138 384 169 l 384 493 q 379 491 374 489 q 370 487 366 485 q 355 499 346 508 q 337 518 332 525 q 300 563 288 563 q 274 563 229 521 q 187 481 167 462 q 164 472 159 479 q 155 494 130 530 q 101 571 87 571 q 83 571 67 556 q 54 543 40 530 q 27 517 11 503 q 7 499 4 496 q 2 494 0 492 l 6 485 q 16 492 20 492 q 39 492 63 455 q 85 421 85 398 l 85 155 q 85 157 84 150 q 82 142 80 124 q 79 121 76 110 q 73 100 73 97 q 73 93 74 92 q 87 82 101 60 q 117 34 125 20 q 133 7 135 5 q 142 -2 150 -2 q 154 -2 189 24 q 204 37 215 46 q 226 55 234 62 q 236 68 236 70 q 211 66 188 96 q 168 124 168 148 l 168 423 q 170 432 185 454 q 204 482 217 482 q 239 482 271 446 q 289 426 298 400 q 303 385 303 370 l 303 146 q 303 132 300 126 q 286 96 286 104 l 286 93 q 311 91 327 50 l 329 47 q 349 0 369 0 q 376 0 380 4 q 463 66 463 79 z"},"h":{"x_min":0,"x_max":477,"ha":477,"o":"m 494 75 l 485 81 q 464 72 460 72 q 442 72 415 101 q 389 128 385 146 q 380 169 378 202 q 376 234 377 277 l 381 395 q 383 424 385 444 q 387 463 389 474 q 383 476 378 478 q 374 480 371 481 q 345 504 324 524 q 304 544 290 560 q 284 562 284 562 q 273 562 229 521 q 206 499 193 487 q 180 475 176 472 q 171 482 171 519 q 171 542 174 580 q 177 618 182 671 q 188 723 200 746 q 212 769 238 785 q 263 801 288 801 q 307 801 311 791 q 315 782 316 756 q 318 756 321 756 q 324 755 325 755 q 340 759 352 781 q 363 801 363 817 q 363 843 337 843 q 295 843 219 803 l 99 740 q 66 731 44 728 l 44 720 q 50 716 64 711 q 77 706 82 699 q 92 659 92 632 l 85 300 q 84 265 84 236 q 83 208 83 188 q 83 177 80 157 q 78 137 73 107 q 68 95 65 92 q 69 88 71 84 q 81 90 88 95 q 93 77 116 38 q 145 -12 166 -12 q 175 -12 213 20 q 248 49 252 54 q 250 60 249 62 q 238 62 235 63 q 220 72 199 102 q 180 132 175 149 q 170 172 168 198 q 167 224 168 252 l 175 403 q 175 410 180 438 q 181 443 195 460 q 209 477 215 477 q 229 477 280 419 l 296 401 q 297 343 298 303 q 298 263 298 241 q 298 233 298 222 q 297 211 296 196 q 295 181 294 170 q 294 159 294 151 l 293 124 q 292 113 292 106 q 291 99 291 97 q 291 93 296 88 q 300 86 302 84 q 303 83 304 82 q 353 0 388 0 q 406 0 439 24 q 452 34 463 44 q 474 54 484 64 q 488 68 490 70 q 492 73 494 75 z"},"z":{"x_min":0,"x_max":441,"ha":441,"o":"m 433 558 l 433 570 l 427 570 q 338 527 306 527 q 264 527 198 559 q 166 575 158 575 q 142 575 104 543 q 72 515 61 498 q 64 498 70 498 q 77 499 81 499 q 89 499 134 480 q 179 461 208 461 q 234 461 282 480 q 333 500 337 500 q 348 500 348 489 q 348 463 274 356 q 253 328 236 328 l 138 329 q 115 311 97 298 q 79 284 66 274 q 65 267 64 268 l 193 268 q 202 268 206 264 l 206 259 q 181 219 156 182 q 131 146 105 112 q 91 92 79 78 q 67 63 58 54 l 29 34 q 9 20 9 10 q 9 -1 22 -1 q 35 -1 52 15 l 77 40 q 81 42 92 42 q 110 42 170 16 q 230 -10 255 -10 q 330 -10 396 85 l 390 85 q 354 61 321 61 q 301 61 256 83 q 211 105 187 105 q 156 105 106 77 q 117 95 119 97 q 142 128 156 146 q 170 165 175 172 q 237 261 243 264 q 250 268 266 268 q 268 268 268 267 q 268 267 270 267 q 328 267 402 340 q 404 346 404 348 q 398 348 384 341 q 376 337 370 336 q 365 334 363 333 q 342 326 310 326 q 297 326 285 329 q 376 459 402 500 q 433 547 433 558 z"},"B":{"x_min":0,"x_max":563,"ha":563,"o":"m 516 334 q 516 400 479 436 q 450 464 380 484 q 370 489 367 490 q 371 495 387 505 q 416 522 438 558 q 464 598 464 627 q 464 666 448 699 q 420 766 345 764 l 114 759 q 55 757 44 775 q 44 784 47 795 q 40 802 31 802 q 25 799 25 791 q 25 773 41 738 q 53 707 62 697 q 78 680 103 681 l 203 689 q 214 690 219 688 q 128 605 121 542 q 119 531 118 522 q 117 514 116 509 q 113 487 111 485 q 92 485 91 484 q 63 476 35 444 l -2 402 q 2 390 8 390 q 30 410 53 410 q 112 410 117 330 q 118 307 118 294 q 119 282 119 280 q 119 267 116 238 q 113 208 106 160 q 105 141 97 132 q 70 109 50 92 q 29 75 15 65 q -32 21 -32 -1 q -32 -20 -13 -20 q -6 -20 -3 -19 q -2 63 83 63 q 116 63 239 3 q 243 1 246 0 q 248 0 250 -1 l 250 -49 l 266 -49 l 266 -5 q 289 3 306 11 q 323 19 334 27 q 343 33 346 36 q 366 46 389 66 q 412 85 437 115 q 487 176 496 218 q 516 315 516 334 z m 386 584 q 386 529 344 486 q 342 484 334 478 q 326 473 312 465 q 282 447 277 447 q 272 446 266 444 l 266 659 l 250 662 l 250 445 q 238 437 230 431 l 231 419 q 235 420 240 420 q 245 421 250 422 l 250 110 q 242 112 236 114 q 231 116 226 117 q 174 133 149 133 l 120 133 q 141 152 178 194 q 196 249 196 381 l 194 465 q 192 517 194 549 q 196 619 214 652 q 221 668 247 691 q 261 693 272 694 q 283 696 291 696 q 316 696 334 688 q 357 678 374 641 q 386 611 386 584 z m 431 283 q 431 211 416 153 q 393 66 344 66 q 324 66 266 98 l 266 420 q 276 422 286 422 q 317 422 344 412 q 371 402 390 384 q 409 366 420 340 q 431 314 431 283 z"},"K":{"x_min":0,"x_max":699,"ha":699,"o":"m 769 729 l 769 738 q 769 738 765 740 q 754 739 746 734 q 739 729 734 722 q 729 716 726 710 q 722 703 720 699 q 707 682 702 679 q 676 670 600 670 l 574 671 q 563 672 556 672 q 550 672 547 672 q 507 672 492 660 q 480 649 472 642 q 464 635 459 631 q 437 613 437 606 q 437 602 440 601 q 460 611 482 611 q 523 611 523 591 q 523 572 448 512 q 422 492 402 476 q 382 461 368 451 q 345 433 312 398 l 314 655 q 310 687 297 700 q 299 701 300 701 q 301 701 302 702 q 334 703 355 704 q 376 704 387 706 q 437 713 475 742 l 496 754 q 502 758 506 762 q 510 766 512 770 l 498 770 q 493 770 484 766 q 471 761 469 761 q 430 752 409 753 l 220 767 q 174 771 137 750 q -32 651 -32 576 q -32 556 -18 556 q -12 556 5 572 q 24 588 26 595 q 29 618 31 632 q 33 645 34 648 q 37 657 44 666 q 50 675 58 682 q 67 690 77 695 q 87 700 96 700 q 103 700 120 703 q 135 706 144 706 q 191 706 218 685 q 236 672 234 577 l 232 490 q 232 488 230 482 l 230 481 q 224 485 217 487 q 206 493 198 493 q 160 493 100 430 q 171 428 203 369 q 226 325 226 265 l 226 251 l 224 223 q 220 123 172 123 q 167 123 156 127 q 145 131 144 131 q 140 131 105 99 q 70 67 70 63 l 70 58 q 73 56 75 54 q 77 52 79 51 q 98 44 112 38 q 127 33 138 29 q 193 1 231 1 q 308 1 383 80 q 386 88 383 90 q 378 92 373 89 q 362 85 355 82 q 348 78 343 76 q 329 73 312 73 q 275 73 196 103 q 193 104 193 108 q 224 127 256 167 q 288 207 293 233 q 305 315 308 347 q 310 363 313 367 l 320 367 q 343 367 393 280 q 411 248 424 224 q 438 200 446 184 q 462 156 472 138 q 481 121 486 113 q 519 50 531 35 q 561 -3 587 -3 q 615 -3 650 29 l 710 89 q 711 90 711 93 q 711 97 705 97 q 670 74 661 74 q 632 74 599 123 q 594 130 584 148 q 575 166 559 195 q 535 240 521 266 q 507 291 502 298 q 485 330 476 348 q 466 366 464 370 q 436 422 396 440 q 394 442 394 443 q 460 503 498 538 q 537 572 548 583 q 567 601 580 619 q 593 624 602 626 q 612 629 619 630 q 659 640 727 678 q 750 690 762 714 q 768 728 769 729 z"},"R":{"x_min":0,"x_max":615,"ha":615,"o":"m 626 69 l 619 69 q 605 61 594 61 q 583 61 577 63 q 544 74 513 162 q 506 179 498 208 q 489 238 478 281 q 470 310 466 326 q 461 342 459 347 q 446 385 424 412 q 407 422 397 430 q 407 436 411 437 q 544 504 544 618 q 544 681 506 730 q 465 783 403 785 q 358 787 308 785 l 308 808 l 292 808 l 292 784 q 288 781 284 780 q 230 775 194 772 q 157 770 138 770 q 89 770 79 772 q 50 779 51 813 q 49 816 44 816 q 41 813 38 813 q 38 813 37 810 q 36 807 36 805 q 36 791 61 729 q 71 704 84 697 q 96 692 120 692 l 253 705 q 262 705 263 704 q 214 659 196 635 q 167 594 167 546 l 167 499 q 150 492 140 488 q 131 484 129 483 q 98 464 62 417 q 66 411 67 408 q 88 416 104 416 q 168 416 167 334 q 167 330 167 324 q 167 318 168 308 l 170 291 q 176 222 160 166 q 147 115 128 92 q 122 83 109 79 q 96 75 84 71 q 44 53 6 3 q 48 3 68 0 q 90 -4 106 -8 q 121 -11 129 -13 q 166 -23 198 -23 q 225 -23 256 0 q 282 22 302 38 q 321 53 333 63 l 333 70 q 329 70 327 72 q 310 61 300 54 q 289 47 267 47 q 248 47 211 56 q 186 62 172 65 q 158 68 153 69 q 147 71 144 73 l 144 78 q 159 98 162 101 q 240 180 240 252 l 240 633 q 240 651 272 692 q 273 696 270 708 l 292 709 l 292 394 l 281 384 l 281 378 q 285 377 288 376 q 290 376 292 376 l 292 91 l 308 91 l 308 373 l 315 373 q 354 352 375 283 q 386 245 395 216 q 404 187 409 167 q 414 151 418 138 q 421 126 424 118 q 461 0 511 0 q 525 0 542 11 q 559 21 568 26 q 578 32 580 33 q 614 50 617 51 q 627 57 627 65 q 627 68 626 69 z m 466 564 q 466 489 411 455 q 395 450 383 446 q 371 443 362 442 q 346 431 334 424 q 323 416 315 411 l 308 406 l 308 709 q 304 709 309 709 q 314 709 328 710 l 343 710 q 391 710 415 695 q 441 678 455 634 q 466 595 466 564 z"},"T":{"x_min":0,"x_max":700,"ha":700,"o":"m 802 779 q 802 786 796 788 q 788 786 788 786 q 777 782 766 773 q 761 768 758 764 q 754 761 752 758 q 729 744 692 744 q 657 744 605 749 q 553 754 484 764 l 484 814 l 469 814 l 469 766 l 416 774 q 420 786 425 795 q 426 796 428 798 q 430 801 434 805 q 440 809 440 815 q 440 821 431 821 q 423 816 417 811 q 411 806 406 802 q 386 785 380 779 q 369 779 354 780 q 338 781 318 783 q 298 785 282 786 q 267 788 256 788 q 185 788 120 750 q 87 730 6 663 q 1 658 -4 651 q -10 644 -15 634 q -26 614 -26 601 q -26 576 -5 576 q 0 576 5 581 q 4 592 4 600 q 3 607 3 609 q 10 667 72 696 q 124 720 213 720 q 262 720 345 711 q 340 683 340 660 l 347 437 q 350 320 325 271 q 317 260 309 250 q 301 239 294 230 l 294 222 q 295 222 298 221 q 300 220 301 220 q 329 248 352 277 q 401 339 402 345 q 410 363 418 414 q 423 440 424 462 q 426 485 425 502 l 415 689 q 415 692 416 696 q 416 700 417 705 q 430 703 442 700 q 455 698 469 696 l 469 105 q 373 134 301 203 q 249 254 230 310 q 212 359 212 438 q 212 534 237 616 q 243 627 248 636 q 253 645 257 651 l 276 671 q 292 687 292 693 q 292 698 284 698 q 273 691 260 680 q 246 670 231 654 q 197 619 178 594 q 159 570 154 557 q 131 490 131 397 q 131 327 160 237 q 183 172 257 108 q 311 61 399 33 q 429 23 469 15 l 469 -60 l 484 -60 l 484 13 l 503 9 q 549 9 580 31 q 591 39 611 60 q 631 80 659 113 q 658 114 657 114 q 656 114 655 115 q 603 89 576 89 q 530 89 484 101 l 484 693 q 516 689 544 687 q 571 685 594 685 q 665 685 732 726 q 763 746 778 756 q 794 766 796 767 q 802 771 802 779 z"},"P":{"x_min":0,"x_max":542,"ha":542,"o":"m 515 619 q 515 643 509 669 q 504 689 483 721 q 464 752 446 764 q 398 794 288 791 l 288 827 l 272 827 l 272 790 q 240 788 218 786 q 196 784 183 782 q 154 780 135 779 q 103 776 87 776 q 49 776 42 792 q 40 795 39 811 q 38 822 30 824 q 23 820 23 813 q 23 799 46 747 q 54 730 61 719 q 68 708 75 704 q 82 698 106 698 q 126 698 161 705 q 201 713 215 713 l 229 713 q 227 710 216 700 q 206 689 189 671 q 155 637 150 594 q 149 590 149 579 q 149 568 148 551 q 147 522 142 517 q 133 521 126 521 q 114 521 73 484 q 31 446 31 435 q 31 431 35 427 l 41 427 q 60 452 72 452 q 139 452 148 358 q 151 329 151 284 q 151 118 106 97 q 89 94 83 95 q 38 57 15 33 l 13 25 q 41 23 94 10 q 138 0 162 0 q 193 0 234 26 q 264 47 272 55 l 272 -20 l 288 -20 l 288 70 q 294 77 303 88 l 288 88 l 288 337 q 305 340 313 344 q 380 370 423 417 q 459 454 496 527 q 515 565 515 619 z m 449 551 q 449 454 401 432 q 348 412 325 405 q 313 393 288 374 l 288 720 q 324 718 351 708 q 449 670 449 551 z m 272 76 q 253 65 228 65 q 219 65 206 67 q 193 69 176 73 q 159 77 146 81 q 134 85 127 89 q 140 101 148 110 q 157 118 162 123 q 221 184 221 276 q 221 282 220 292 q 220 301 220 311 q 220 322 220 332 q 219 341 219 347 l 219 627 q 219 689 261 721 l 272 721 l 272 362 q 262 355 256 350 q 250 344 246 340 q 253 333 265 333 q 269 333 272 334 z"},"|":{"x_min":0,"x_max":244,"ha":244,"o":"m 145 0 l 145 634 l 99 634 l 99 0 z"},"t":{"x_min":0,"x_max":268,"ha":268,"o":"m 272 588 q 272 593 271 594 q 238 591 230 591 q 222 591 207 592 q 192 594 184 594 q 183 595 182 596 q 181 596 180 597 q 181 608 181 618 q 181 629 181 637 q 181 648 180 655 q 180 662 179 667 l 173 667 q 157 654 142 643 q 127 632 112 622 q 92 609 74 600 q 57 592 42 588 q 38 580 31 570 q 24 559 14 546 q -3 522 -4 521 l -4 517 q 0 513 8 513 l 70 519 q 87 519 87 503 l 87 165 q 87 157 76 105 q 71 80 68 73 q 65 66 65 77 q 65 77 67 71 q 75 74 84 79 q 88 77 91 75 q 113 28 153 -6 q 161 -11 172 -11 q 188 -11 217 14 q 247 39 262 53 q 263 54 263 57 q 258 58 257 60 q 233 57 182 127 q 169 144 169 199 l 172 358 q 175 469 175 520 q 185 522 192 523 q 199 524 204 525 q 214 528 242 555 q 272 582 272 588 z"},"M":{"x_min":0,"x_max":894,"ha":894,"o":"m 878 766 l 869 768 q 840 744 807 745 l 682 763 q 664 766 629 743 q 613 733 600 722 q 586 710 574 696 l 574 756 l 559 756 l 559 673 l 558 671 q 550 649 536 631 q 523 613 506 597 q 504 601 503 602 q 499 618 495 627 q 490 670 450 717 q 406 765 365 765 q 348 765 300 743 q 283 743 250 753 q 217 763 199 763 q 160 763 126 742 q 106 730 84 709 q 57 682 57 667 q 57 660 60 659 q 63 658 67 657 q 68 658 68 659 q 69 660 70 661 q 74 695 115 695 q 127 695 173 685 q 220 675 202 675 q 205 675 210 676 q 216 677 219 677 q 229 677 231 674 q 199 624 189 598 q 187 590 186 584 q 186 579 185 575 q 168 521 168 468 q 158 463 152 460 q 145 457 141 455 q 99 429 73 394 q 67 386 64 382 q 60 377 59 375 l 59 370 l 63 366 q 94 382 104 382 q 143 382 163 343 q 177 313 177 276 q 177 263 174 232 q 171 202 164 153 q 158 103 131 87 q 121 82 97 82 q 81 82 63 87 q 20 103 11 125 q 7 136 3 138 q -3 120 -3 94 q -3 67 5 41 q 20 0 54 0 q 101 0 158 81 q 207 148 223 205 q 241 270 240 313 l 235 546 q 234 604 250 659 q 254 669 264 680 q 275 690 286 690 q 301 690 330 677 q 372 661 396 612 q 416 570 416 531 l 416 425 q 409 420 391 418 q 369 416 363 414 q 348 407 326 390 q 302 371 298 358 q 335 364 358 364 l 416 364 l 416 287 q 416 228 414 190 q 413 151 409 131 q 408 126 402 114 q 396 103 396 103 q 396 92 421 48 q 448 0 462 0 q 485 0 554 83 q 547 86 546 89 q 535 83 531 83 q 495 83 496 198 l 498 309 q 498 338 501 361 q 503 363 507 365 q 529 369 559 383 l 559 -2 l 574 -2 l 574 392 q 597 405 612 423 l 612 429 q 587 424 587 424 l 574 424 l 574 657 q 595 680 615 680 q 633 680 654 673 q 673 666 688 662 q 703 657 714 653 q 715 652 716 651 q 716 650 717 649 q 703 632 699 606 l 699 151 q 699 143 695 126 q 692 111 692 103 q 692 94 696 87 q 700 80 708 69 q 715 58 727 42 q 758 0 773 0 q 788 0 826 44 q 857 83 861 92 q 843 85 837 85 q 827 85 805 110 q 785 133 784 141 q 778 163 778 199 l 778 601 q 778 607 783 617 q 790 630 790 632 q 803 671 812 682 l 849 726 q 873 753 878 766 z m 559 423 q 540 421 526 420 q 512 419 504 419 q 501 422 501 425 q 501 429 502 437 q 503 445 503 448 q 507 579 556 634 l 559 638 z"},"g":{"x_min":0,"x_max":433,"ha":433,"o":"m 400 36 q 400 79 378 166 q 357 254 357 303 l 364 444 q 367 493 367 504 q 368 507 373 515 q 378 523 378 524 l 378 533 l 372 533 q 359 526 343 526 q 334 526 312 534 q 273 547 253 562 q 245 569 236 569 q 224 569 134 506 q 120 496 109 488 q 98 481 90 476 q 59 452 60 430 l 71 227 l 71 150 q 71 137 62 92 q 53 48 53 68 q 53 64 55 62 q 54 62 71 59 q 86 46 97 37 q 108 28 116 22 q 141 1 164 1 q 188 1 232 42 q 242 52 256 64 q 271 77 291 91 q 292 90 294 90 q 302 77 313 36 q 323 -3 323 -33 q 323 -89 301 -126 q 274 -169 221 -171 q 217 -171 210 -172 q 203 -174 199 -174 q 164 -174 122 -157 q 64 -133 64 -88 l 64 -49 q 57 -59 52 -67 q 47 -75 45 -81 q 0 -140 0 -167 q 0 -209 46 -230 q 79 -245 122 -245 q 149 -245 178 -239 q 228 -229 319 -135 q 333 -121 344 -110 q 355 -99 363 -91 q 400 -42 400 36 z m 291 117 q 291 113 272 98 q 246 78 234 78 q 224 78 196 100 q 168 122 160 122 q 156 122 154 121 l 154 132 l 159 168 q 165 210 164 223 l 159 409 q 157 435 156 451 q 155 467 154 472 q 154 488 162 493 q 219 451 282 446 q 271 404 271 354 l 271 222 q 271 224 272 216 q 274 207 276 188 q 277 177 285 146 q 287 135 288 128 q 290 121 291 117 z"},"j":{"x_min":0,"x_max":255,"ha":255,"o":"m 227 708 q 225 709 224 709 q 223 709 222 710 q 199 696 191 696 q 177 696 163 701 q 149 706 138 715 q 127 724 119 736 q 111 747 110 761 q 100 760 77 726 q 50 688 50 666 q 50 633 104 633 q 122 633 140 639 q 158 645 174 655 q 191 665 204 679 q 218 693 227 708 z m 208 80 q 208 116 200 140 q 183 187 173 208 q 169 217 169 249 l 169 453 q 169 464 175 487 q 180 510 180 520 q 172 520 168 524 l 149 552 q 131 579 126 579 q 119 579 76 538 q 59 521 47 509 q 35 497 30 490 l 30 482 l 36 482 q 41 486 45 488 q 49 490 51 492 l 56 492 q 84 463 84 430 l 84 161 q 84 155 112 89 q 140 23 140 -18 q 140 -68 122 -87 q 102 -110 54 -110 q 38 -110 12 -97 q -14 -85 -20 -64 q -23 -52 -28 -50 q -62 -85 -62 -126 q -62 -175 -1 -175 q 47 -175 103 -129 q 208 -44 208 80 z"},"i":{"x_min":0,"x_max":249,"ha":249,"o":"m 254 731 q 253 732 253 732 q 253 733 252 734 q 228 723 208 723 q 164 723 130 754 q 117 766 114 794 q 98 791 82 769 q 60 741 60 717 q 60 689 86 672 q 108 657 138 657 q 191 657 254 731 z m 241 78 q 240 81 237 84 q 228 81 221 81 q 212 81 195 95 q 182 105 177 115 q 168 130 168 144 l 168 447 q 168 452 171 461 q 179 482 179 481 l 184 490 q 187 496 187 499 q 182 500 178 500 q 173 501 171 501 q 162 514 156 523 q 149 532 145 538 q 124 567 115 567 q 105 567 61 527 q 42 514 30 507 l 30 500 q 38 492 45 486 q 52 479 57 475 q 62 469 73 445 q 83 421 83 405 l 83 163 q 83 155 68 94 q 68 88 94 44 q 116 4 144 4 q 163 4 200 36 q 213 47 223 58 q 233 68 241 78 z"},"y":{"x_min":0,"x_max":463,"ha":463,"o":"m 478 540 l 478 547 q 478 547 474 549 l 468 549 q 468 549 464 547 q 459 545 453 542 q 447 540 440 538 q 434 536 428 536 q 411 536 388 546 q 386 547 362 561 q 345 570 339 570 q 323 570 287 537 q 252 505 252 496 q 254 494 254 493 q 256 493 260 494 q 265 494 267 494 q 278 494 304 469 q 304 471 304 468 q 304 466 305 459 l 305 452 l 304 213 q 304 82 257 82 q 228 82 176 133 q 168 141 168 149 q 170 344 168 415 q 168 430 175 454 l 181 479 q 181 486 155 523 q 132 557 125 561 q 117 567 105 567 q 83 567 32 494 q 30 490 30 484 q 58 483 75 453 q 88 431 88 402 l 88 161 q 88 112 71 92 l 71 86 q 88 70 100 58 q 113 47 121 39 q 156 7 184 7 q 207 7 245 43 q 273 69 288 84 q 304 99 308 102 q 315 87 318 71 q 333 -6 333 -33 q 333 -98 301 -136 q 266 -178 203 -178 q 156 -178 118 -155 q 78 -130 63 -87 q 61 -78 66 -52 q 66 -49 63 -46 q 54 -48 44 -63 q 8 -116 8 -148 q 8 -188 44 -215 q 75 -239 118 -239 q 199 -239 277 -176 q 369 -102 398 -31 q 412 2 412 45 q 412 68 397 119 q 383 172 383 193 l 383 443 q 383 447 389 461 q 421 487 444 507 q 466 527 478 540 z"},"@":{"x_min":0,"x_max":781,"ha":781,"o":"m 735 370 q 735 501 635 583 q 543 662 409 662 q 253 662 150 560 q 46 459 46 305 q 46 189 135 92 q 242 -21 418 -21 q 504 -21 627 34 l 615 59 q 507 12 417 12 q 288 12 203 100 q 123 183 123 294 q 123 437 192 532 q 270 636 409 636 q 540 636 625 545 q 701 466 701 369 q 701 302 659 224 q 617 185 563 168 q 505 229 505 252 l 505 443 q 505 456 523 482 l 522 489 q 501 493 485 503 l 390 563 q 353 534 331 516 q 309 499 301 493 q 271 470 271 442 q 271 417 292 417 q 307 417 307 451 q 307 464 310 472 q 314 481 318 486 q 323 492 327 494 q 331 496 333 498 q 356 490 388 469 q 405 459 416 450 q 428 440 436 432 l 434 399 q 411 393 393 388 q 375 384 364 382 q 344 378 332 374 q 319 371 312 368 q 302 364 290 362 q 278 361 263 360 q 271 341 271 337 l 271 288 q 270 263 270 247 q 270 231 270 223 q 270 200 252 172 q 274 165 298 146 q 324 124 323 103 l 330 96 q 360 118 375 129 q 388 140 398 150 q 409 159 417 167 q 421 171 427 176 q 433 180 441 187 q 457 154 465 145 q 487 119 501 106 q 590 136 673 195 q 735 269 735 370 z m 434 200 l 394 167 l 342 217 q 346 233 348 254 q 350 275 349 303 q 348 319 350 333 q 351 347 353 359 l 433 381 z"},".":{"x_min":0,"x_max":293,"ha":293,"o":"m 237 27 q 233 31 231 34 q 229 38 227 40 q 216 28 203 28 q 178 28 158 51 q 139 74 139 101 q 139 107 140 110 l 137 113 q 122 102 107 90 q 92 77 76 64 q 56 47 56 36 q 56 12 83 0 q 105 -11 131 -11 q 159 -11 207 7 q 232 18 237 27 z"},"p":{"x_min":0,"x_max":434,"ha":434,"o":"m 383 466 q 383 479 368 494 q 362 499 356 505 q 350 511 344 517 q 331 529 320 541 q 309 553 298 565 l 288 567 q 270 567 174 468 q 165 464 165 464 q 157 483 150 497 q 144 511 140 521 q 124 564 105 564 q 100 564 67 534 q 44 512 32 502 q 21 491 21 488 l 21 483 q 21 483 25 481 q 37 489 38 490 q 42 488 45 485 q 89 424 89 364 l 89 162 q 89 161 88 150 q 87 138 85 115 q 51 93 -7 38 q -17 30 -15 24 l -9 24 q 33 63 69 63 q 85 63 85 38 l 85 -2 q 85 -93 71 -138 q 44 -219 -37 -219 q -81 -219 -87 -188 q -91 -186 -92 -186 q -100 -189 -108 -196 q -116 -202 -122 -210 q -129 -219 -134 -228 q -138 -238 -138 -245 q -138 -272 -93 -272 q -47 -272 -1 -244 q 13 -236 34 -219 q 56 -202 85 -177 q 118 -149 144 -130 q 169 -110 187 -97 l 187 -91 q 178 -86 170 -68 q 163 -50 163 -38 l 163 29 l 168 33 q 219 9 223 9 q 230 9 249 28 q 261 39 270 48 q 279 57 285 63 q 308 83 324 97 q 341 111 351 119 q 357 125 375 136 q 381 140 381 157 q 377 174 375 188 q 373 202 373 213 l 373 357 q 373 379 376 406 q 378 434 383 466 z m 295 181 q 295 152 293 128 q 291 104 287 84 l 283 81 l 275 79 q 258 95 224 109 q 207 116 193 120 q 179 124 167 125 l 167 392 q 167 415 185 447 q 205 479 225 486 l 291 418 q 295 414 295 401 z"},"X":{"x_min":0,"x_max":709,"ha":709,"o":"m 706 737 q 706 758 685 770 q 668 779 646 779 q 570 779 483 698 q 413 633 360 540 l 357 537 q 344 575 334 604 q 325 632 318 652 q 293 723 244 767 q 207 799 150 799 q 123 799 94 776 l 39 722 q 37 716 38 715 q 37 714 36 714 l 43 712 q 63 723 82 723 q 200 723 257 549 q 284 468 284 456 l 284 445 q 244 431 222 422 q 200 414 195 412 q 179 404 164 397 q 149 390 133 382 q 127 380 122 378 q 118 376 115 374 q 105 370 105 361 q 109 355 118 355 q 119 355 137 363 q 155 370 161 372 q 190 376 212 378 q 235 380 250 380 q 281 380 292 374 q 296 362 296 350 q 296 228 195 124 q 159 86 113 86 q 48 86 48 127 q 48 130 50 136 q 51 143 51 146 l 45 146 q -12 96 -12 48 q -12 1 55 1 q 118 1 183 63 q 235 114 290 201 q 302 223 310 238 q 318 253 323 263 q 324 264 326 264 q 361 134 443 49 q 496 -4 539 -4 q 575 -4 609 24 q 625 37 640 50 q 656 64 672 79 q 679 85 678 89 l 672 89 q 640 73 617 73 q 588 73 547 102 q 461 167 413 312 q 397 359 397 364 l 397 369 l 402 374 l 446 374 q 483 374 483 354 q 483 349 478 339 l 469 326 l 479 324 q 499 356 514 386 q 525 409 532 422 q 538 436 540 441 q 540 444 536 448 l 481 443 l 402 443 q 396 450 396 461 q 396 468 398 480 q 399 492 401 511 q 411 580 458 637 q 510 701 577 701 q 598 701 615 689 q 634 677 636 657 l 638 654 q 642 659 646 664 q 649 669 652 674 q 663 689 669 692 q 674 695 680 700 q 685 705 692 712 q 706 729 706 737 z"},"*":{"x_min":0,"x_max":342,"ha":342,"o":"m 284 664 l 267 726 l 186 679 l 198 787 l 142 787 l 156 680 l 76 724 l 58 661 l 151 645 l 86 561 l 128 524 l 172 625 l 215 523 l 258 563 l 193 645 z"},"Y":{"x_min":0,"x_max":831,"ha":831,"o":"m 922 769 l 922 781 l 910 781 q 902 781 878 756 q 865 743 817 743 l 770 747 q 730 749 723 750 q 682 750 654 735 q 649 733 628 719 q 608 705 571 680 l 574 674 q 613 693 644 691 q 661 690 678 690 q 696 689 715 687 q 619 613 619 553 l 619 285 q 619 242 609 216 q 602 194 594 178 q 585 162 575 151 q 529 102 482 102 q 438 102 413 144 q 391 181 391 227 q 391 261 414 368 q 452 546 452 610 q 452 686 418 732 q 380 786 309 786 q 229 786 135 704 q 47 626 18 546 q 4 507 4 460 q 4 433 21 410 q 39 386 65 386 q 80 386 85 392 q 131 450 131 459 l 131 467 q 129 467 126 466 q 122 465 120 465 q 109 465 94 477 q 80 489 76 500 q 68 521 68 550 q 68 619 114 665 q 160 713 228 713 q 304 713 344 664 q 375 627 375 537 q 375 497 369 475 q 349 480 349 480 q 321 480 289 457 q 262 437 245 408 q 251 406 252 406 q 257 407 262 408 q 266 408 271 408 q 344 408 344 353 q 344 338 341 315 q 338 292 331 261 q 319 199 319 169 q 319 119 337 79 q 362 21 418 21 q 462 21 509 57 q 525 70 546 93 q 568 116 596 148 q 615 172 615 172 q 618 154 618 116 q 618 5 602 -42 q 580 -114 564 -134 q 536 -171 477 -171 q 375 -171 291 -105 q 238 -63 238 -20 q 238 0 245 6 q 251 11 254 14 q 257 17 258 18 l 247 21 q 232 10 204 -29 q 175 -73 175 -90 q 175 -141 265 -193 q 341 -238 382 -238 q 438 -238 470 -221 q 536 -184 590 -131 q 652 -69 670 -13 q 695 59 695 143 l 695 548 q 695 607 707 642 q 719 678 770 694 q 799 704 821 710 q 843 717 857 722 q 866 725 894 744 q 922 763 922 769 z"},"c":{"x_min":0,"x_max":353,"ha":353,"o":"m 334 141 l 334 146 l 327 146 q 270 106 238 78 q 224 86 213 93 q 202 100 194 107 q 177 120 163 130 q 149 141 138 149 q 154 209 151 280 q 149 322 146 374 q 144 427 140 491 q 145 496 151 500 q 175 502 213 470 q 247 443 262 418 q 267 410 267 399 q 267 393 265 381 q 263 369 263 363 q 263 351 271 341 l 277 341 q 283 382 288 393 q 300 416 310 436 q 321 456 331 472 q 318 505 279 534 q 239 565 226 565 q 219 565 210 559 q 168 530 138 509 q 109 488 90 476 q 79 468 69 460 q 59 452 49 442 q 60 415 60 406 l 60 163 q 60 142 57 129 q 55 122 48 110 q 40 96 40 96 l 40 83 q 72 85 137 26 q 171 -3 173 -3 q 177 -3 211 22 q 245 47 247 52 q 258 73 287 99 q 303 113 314 123 q 326 133 334 141 z"},"!":{"x_min":0,"x_max":293,"ha":293,"o":"m 218 731 q 185 735 146 767 q 130 778 122 778 q 104 778 76 748 q 62 733 52 722 q 43 712 38 705 l 40 698 q 67 696 89 665 q 144 586 144 371 q 144 358 144 340 q 144 322 143 297 q 142 272 142 254 q 142 236 142 223 q 142 184 131 126 l 142 121 q 147 135 152 146 q 156 157 159 166 q 175 191 187 201 q 179 214 177 226 q 173 249 173 361 q 173 467 179 546 q 185 625 196 680 q 203 716 218 731 z m 255 77 l 250 81 q 221 63 208 63 q 182 63 133 87 q 124 81 103 63 l 47 17 q 102 -10 137 -10 q 168 -10 212 32 q 223 43 234 54 q 245 66 255 77 z"},"/":{"x_min":0,"x_max":488,"ha":488,"o":"m 585 903 l 534 868 q 508 823 488 790 q 469 758 455 736 q 332 538 221 366 q 110 193 9 43 q -15 9 -32 -14 q -49 -38 -59 -52 l -2 -24 q 10 -7 20 9 q 31 25 41 39 l 479 721 q 518 787 544 832 q 571 877 585 903 z"},"[":{"x_min":0,"x_max":293,"ha":293,"o":"m 264 -76 l 264 -55 l 159 -55 l 159 852 l 262 852 l 262 872 l 93 872 l 93 -76 z"},"6":{"x_min":0,"x_max":459,"ha":459,"o":"m 432 606 q 415 603 411 603 q 379 603 338 629 q 313 646 295 659 q 277 672 265 680 q 251 687 250 689 q 245 689 221 671 q 199 655 173 638 q 147 620 118 601 q 102 591 85 583 q 68 575 51 568 q 46 563 45 559 q 51 525 54 502 q 57 478 58 465 l 63 173 q 57 104 45 80 q 66 61 125 31 q 176 6 208 -2 q 233 12 255 26 q 277 39 296 52 q 327 73 347 85 q 400 120 408 132 l 400 140 q 399 172 398 212 q 398 253 398 303 q 398 344 411 366 q 399 371 383 383 q 307 438 269 438 q 251 438 210 409 q 190 395 176 384 q 161 374 151 367 l 144 533 q 142 574 144 603 q 172 621 180 621 q 207 604 234 585 q 280 561 331 561 q 340 561 375 570 q 418 581 428 590 q 435 594 432 606 z m 316 300 q 316 296 314 286 q 311 275 311 271 q 311 260 311 242 q 311 224 312 199 q 313 175 313 157 q 313 139 313 127 q 313 66 293 66 q 269 66 208 93 q 142 123 142 143 q 142 145 144 153 q 145 161 147 175 l 148 341 q 170 372 196 372 q 231 372 299 324 q 316 310 316 300 z"},"r":{"x_min":0,"x_max":343,"ha":343,"o":"m 356 484 q 356 483 354 489 q 352 489 346 488 q 341 487 338 487 q 320 487 308 517 q 298 542 299 563 q 296 567 296 570 l 287 570 l 162 474 q 148 505 144 528 q 127 570 113 570 q 102 570 22 506 q 12 498 11 493 q 8 494 27 494 q 42 494 59 465 q 64 455 68 446 q 71 438 73 430 q 82 395 82 372 l 82 146 q 82 131 71 103 q 63 83 59 76 q 68 75 97 36 q 125 -1 144 -1 q 158 -1 189 24 q 201 35 211 44 q 221 52 229 59 q 231 61 231 65 q 220 69 211 71 q 176 102 169 116 q 164 129 164 166 l 164 374 q 164 394 166 411 q 167 428 169 443 q 171 456 183 472 q 195 487 207 491 q 245 429 282 429 q 286 429 294 431 q 303 433 306 433 q 317 434 337 453 q 356 472 356 484 z"},"2":{"x_min":0,"x_max":459,"ha":459,"o":"m 440 103 l 428 113 q 410 80 394 80 q 380 80 316 112 q 254 145 220 145 q 164 145 98 82 q 97 83 97 84 q 117 144 179 208 q 240 272 299 297 q 326 309 344 317 q 363 325 373 330 q 403 342 403 375 l 403 603 q 363 610 330 633 q 244 689 249 689 q 247 689 230 678 q 220 671 214 667 q 208 663 204 661 q 169 641 148 628 q 126 616 118 611 q 65 580 58 571 q 51 563 51 532 l 51 426 q 51 412 36 384 q 40 382 40 382 q 56 392 68 400 q 81 409 90 417 q 118 436 128 449 q 132 454 132 467 l 132 538 q 132 571 139 595 q 142 608 146 612 q 150 617 164 626 q 177 636 183 636 q 185 635 205 615 q 229 590 239 584 q 262 572 283 562 q 304 553 322 545 q 322 533 322 515 q 322 497 323 472 q 324 448 324 430 q 325 412 325 399 q 325 353 287 321 q 252 293 211 267 q 93 166 41 12 l 47 12 q 114 70 153 70 q 179 70 245 38 q 312 6 336 6 q 348 6 361 17 q 377 34 388 45 q 398 56 403 63 z"},"{":{"x_min":0,"x_max":293,"ha":293,"o":"m 242 -195 l 242 -183 q 191 -161 191 -61 l 191 105 q 191 165 175 188 q 155 220 95 232 l 95 234 q 156 246 175 277 q 191 302 191 361 l 191 528 q 191 627 242 650 l 242 662 q 178 662 150 637 q 115 605 115 523 l 115 346 q 115 297 103 275 q 88 246 46 233 q 87 220 104 191 q 115 167 115 120 l 115 -56 q 115 -138 150 -170 q 178 -195 242 -195 z"},"9":{"x_min":0,"x_max":459,"ha":459,"o":"m 419 613 q 419 621 379 634 q 340 647 324 655 q 309 662 295 668 q 281 674 267 681 q 250 675 243 669 q 198 638 140 611 q 122 603 88 581 q 50 557 50 551 q 67 542 67 494 l 67 395 q 67 353 57 327 q 58 322 58 319 q 58 317 59 315 q 113 304 153 276 q 161 269 175 257 q 189 245 208 226 l 314 311 l 314 303 q 316 236 317 182 q 318 129 318 87 q 310 79 300 72 q 291 66 280 61 q 263 93 222 119 q 181 146 147 146 q 117 146 92 128 q 81 118 69 109 q 57 100 46 91 l 46 88 l 46 85 q 124 70 159 42 q 176 24 188 10 q 200 -4 208 -14 q 289 49 298 55 l 348 88 q 368 102 381 111 q 394 120 402 125 q 411 131 411 135 q 393 193 393 267 l 393 455 q 393 478 395 506 q 397 534 401 569 q 402 582 413 602 q 418 613 419 613 z m 316 332 q 313 325 302 317 q 291 309 283 309 q 277 309 212 347 q 180 365 169 368 q 151 371 140 371 q 152 417 152 448 l 152 584 q 152 601 188 616 q 222 596 314 556 q 317 548 317 470 q 317 444 317 409 q 317 375 316 332 z"}," ":{"x_min":0,"x_max":335,"ha":335,"o":""},"I":{"x_min":0,"x_max":475,"ha":475,"o":"m 463 100 q 469 106 467 114 q 464 122 458 122 q 450 122 443 110 q 423 83 410 74 q 391 63 362 63 q 338 63 292 78 q 285 80 274 84 q 263 88 249 93 l 281 124 q 354 191 354 299 l 354 590 q 354 662 382 711 q 381 712 380 712 q 379 713 378 714 l 322 664 q 286 631 278 610 q 269 581 269 551 l 269 494 l 267 493 q 241 506 238 506 q 231 506 224 503 q 223 504 222 505 q 222 506 221 507 l 221 698 q 238 691 261 691 q 306 691 344 712 q 367 726 383 736 q 399 746 407 752 q 417 759 417 766 q 417 780 408 773 q 380 751 357 751 q 302 751 272 761 q 237 773 221 779 l 221 828 l 205 828 l 205 783 q 180 788 155 788 q 119 788 91 769 q 31 728 13 710 q -20 677 -20 635 q -20 617 -6 617 q 2 617 12 628 q 21 640 23 650 q 29 695 38 708 q 52 731 88 731 q 124 731 205 703 l 205 487 q 188 473 176 463 q 164 453 156 446 q 118 414 118 403 q 118 398 123 396 q 127 394 130 397 q 153 426 193 426 q 196 426 205 423 l 205 107 q 186 115 169 115 q 115 115 50 62 q -8 13 -8 -3 q -8 -10 1 -23 l 7 -23 q 11 -23 14 -14 q 33 43 92 43 q 127 43 205 12 l 205 -46 l 221 -46 l 221 6 q 260 -7 287 -7 q 364 -7 463 100 z m 269 226 q 269 157 232 98 q 221 101 221 102 l 221 419 q 269 396 269 321 z"},"H":{"x_min":0,"x_max":708,"ha":708,"o":"m 708 772 l 705 775 q 682 764 678 763 q 656 755 641 755 q 625 755 594 764 q 562 773 552 773 q 523 773 501 757 q 490 749 482 742 q 475 736 470 732 q 439 710 439 700 q 439 698 442 695 q 458 706 476 705 q 486 705 512 696 q 539 688 550 688 q 576 688 577 687 l 530 644 q 518 627 518 576 l 518 482 q 518 452 493 452 l 368 451 l 306 448 l 306 756 q 320 767 320 776 q 320 779 316 783 l 309 783 q 286 757 256 757 q 246 757 232 759 q 218 761 198 765 q 178 769 164 771 q 150 773 142 773 q 110 773 78 747 q 71 742 58 728 q 46 715 27 695 q 11 678 11 672 l 11 664 q 13 664 15 662 q 26 673 35 681 q 44 689 49 695 q 61 704 83 704 q 98 704 128 698 q 159 692 174 692 q 199 692 255 719 q 249 710 247 708 q 227 691 216 682 q 205 674 203 672 q 173 645 169 626 q 161 589 161 586 l 161 485 q 161 484 158 481 q 140 487 135 487 q 92 487 41 400 l 45 396 q 66 411 94 411 q 157 411 157 291 q 157 214 143 160 q 125 92 103 83 q 38 54 -16 3 l -10 -3 q -3 1 4 4 q 11 6 19 8 q 26 11 48 11 l 102 5 q 124 3 137 2 q 150 0 155 0 q 185 0 221 24 l 291 73 l 291 19 l 306 19 l 306 382 q 316 383 322 383 q 329 383 334 383 l 382 382 q 400 381 411 381 q 422 381 426 381 q 489 381 511 430 q 513 434 514 436 q 516 439 518 441 l 518 166 q 518 121 505 92 q 499 76 488 68 q 458 46 446 34 q 440 27 436 22 q 431 17 427 13 l 433 6 q 467 14 478 14 q 484 14 501 12 q 518 11 547 7 q 576 3 584 2 q 592 0 580 0 q 606 0 692 80 q 690 81 688 83 l 675 77 q 662 70 653 70 q 641 70 616 77 q 587 85 576 85 q 565 85 550 82 q 540 79 534 78 q 527 76 525 75 q 540 85 550 91 q 559 97 564 101 q 590 118 593 133 q 601 167 601 179 l 601 573 q 601 615 613 666 q 617 684 621 690 q 632 707 666 734 q 703 763 708 772 z m 291 99 q 283 86 264 77 q 246 68 230 68 q 221 68 208 69 q 196 70 180 72 q 160 75 148 76 q 135 78 129 79 q 155 95 180 122 q 201 146 209 165 q 213 177 217 189 q 221 201 225 213 q 240 289 240 353 l 240 546 q 240 677 270 713 l 270 717 q 267 721 261 721 q 280 737 291 745 l 291 431 q 267 403 259 380 l 255 370 q 262 365 264 364 q 276 381 284 379 l 291 380 z"},"4":{"x_min":0,"x_max":488,"ha":488,"o":"m 508 332 q 507 333 506 334 q 506 335 505 336 q 497 333 496 332 q 456 301 400 301 q 376 301 373 307 l 373 520 q 380 583 391 607 q 391 608 397 616 q 402 623 402 626 q 376 610 362 602 q 347 594 345 592 q 310 569 306 543 q 297 492 297 461 l 297 304 l 198 310 q 121 313 36 259 q 35 260 35 262 q 245 452 281 574 q 301 642 301 664 q 301 672 299 680 l 293 680 q 274 669 254 656 q 235 644 213 629 q 219 609 209 555 q 201 513 169 447 q 146 402 78 323 q 54 297 38 279 q 21 261 11 251 q -5 234 -5 227 l -5 218 l 3 218 q 36 251 113 251 q 132 251 158 248 q 184 245 217 240 l 297 227 l 297 159 q 297 107 279 85 q 268 72 259 62 q 250 53 245 46 q 219 17 219 12 q 219 8 223 7 q 242 22 254 22 q 268 22 301 8 q 331 -5 344 -5 q 370 -5 398 17 q 403 21 417 34 q 431 48 454 71 l 450 75 q 446 75 437 70 q 428 65 419 65 q 409 65 387 73 q 363 82 359 89 q 372 119 372 127 l 373 183 q 375 209 373 226 q 404 229 411 229 q 439 229 465 267 q 479 289 490 305 q 501 321 508 332 z"},"~":{"x_min":0,"x_max":444,"ha":444,"o":"m 396 428 l 356 477 q 318 424 293 424 q 282 424 227 451 q 174 479 143 479 q 93 479 41 406 l 80 355 q 92 372 98 381 q 105 390 106 392 q 125 413 144 413 q 159 413 212 385 q 266 358 292 358 q 345 358 396 428 z"},"D":{"x_min":0,"x_max":635,"ha":635,"o":"m 587 493 q 587 671 494 731 q 448 760 344 760 q 328 760 304 758 q 279 757 247 755 q 215 753 191 752 q 167 751 151 751 q 89 751 63 765 l 61 756 q 75 706 83 694 q 100 668 129 668 q 145 668 168 670 q 190 672 221 676 q 252 680 275 682 q 298 684 314 684 q 377 684 423 656 q 500 609 500 435 q 500 317 471 213 q 427 63 338 63 q 314 63 268 78 l 268 658 l 252 658 l 252 83 q 177 109 151 109 q 148 109 136 108 q 124 106 104 104 l 115 115 q 159 150 175 188 q 190 224 190 282 l 190 505 q 190 575 204 609 q 213 634 242 657 q 238 660 236 662 q 234 664 232 665 q 199 649 168 620 q 141 593 129 563 q 122 542 114 495 q 112 485 111 484 q 107 485 104 486 q 101 486 98 486 q 71 486 19 419 q 14 414 12 410 q 10 407 9 405 l 9 395 q 9 395 13 393 q 28 415 47 415 q 91 415 108 365 q 121 332 121 287 l 121 237 q 121 138 93 107 q 73 91 56 80 q 39 69 26 62 q -32 13 -32 -3 q -32 -9 -21 -23 l -16 -23 q -12 -23 -9 -14 q 1 20 21 32 q 36 41 64 41 q 85 41 126 31 q 148 27 190 11 q 210 4 226 0 q 241 -3 252 -5 l 252 -43 l 268 -43 l 268 -7 l 280 -7 q 318 -7 378 44 q 404 68 424 86 q 444 104 457 117 q 521 169 550 266 q 587 386 587 493 z"},"^":{"x_min":0,"x_max":444,"ha":444,"o":"m 396 287 l 250 602 l 193 602 l 47 287 l 121 287 l 220 510 l 322 287 z"},"0":{"x_min":0,"x_max":459,"ha":459,"o":"m 423 607 q 377 627 344 644 q 311 660 290 671 q 288 673 282 676 q 276 680 268 687 q 256 694 253 696 l 171 653 q 126 630 94 616 q 63 601 43 594 q 61 550 61 487 q 61 342 58 287 q 50 167 46 123 q 41 103 37 87 q 51 77 65 71 q 153 30 194 -23 q 234 8 289 45 q 344 82 414 127 q 414 141 411 165 q 409 178 408 188 q 407 197 407 202 q 405 237 404 273 q 403 309 403 347 q 403 553 423 607 z m 326 540 q 320 517 320 429 l 320 313 q 319 274 319 245 q 319 216 319 197 q 319 180 316 150 q 312 121 305 78 q 282 59 268 50 q 205 126 131 146 q 149 293 149 459 q 149 466 148 486 q 146 505 144 539 q 142 571 141 590 q 140 609 139 617 q 153 623 162 628 q 172 632 179 636 q 225 600 248 582 q 284 554 313 546 q 322 544 326 540 z"},"F":{"x_min":0,"x_max":648,"ha":648,"o":"m 827 787 q 801 767 773 759 q 751 754 713 754 q 688 754 658 756 q 628 758 592 762 q 554 767 524 770 q 493 774 470 776 l 387 786 q 353 790 325 792 q 297 793 275 793 q 254 793 234 791 q 214 789 194 785 q 150 774 83 713 q 11 647 11 604 q 11 564 27 564 q 32 564 46 579 q 60 595 60 600 q 60 619 60 630 q 60 642 61 647 q 62 674 76 689 q 100 715 140 722 q 159 726 214 726 q 273 726 334 722 q 395 718 461 710 q 457 706 456 704 q 454 701 453 699 q 387 664 363 595 q 350 556 346 474 l 346 463 q 321 476 294 481 l 294 695 l 276 695 l 276 479 q 228 477 170 414 l 174 410 l 181 410 q 194 423 223 423 q 258 423 276 415 l 276 36 l 294 36 l 294 400 q 294 402 295 402 q 296 402 297 401 q 336 386 342 328 q 351 248 351 221 l 351 95 q 351 -40 277 -40 q 258 -40 213 -20 q 171 -1 149 -1 q 117 -1 46 -45 q 37 -50 21 -68 q 4 -88 4 -97 q 4 -104 11 -107 l 19 -107 q 29 -64 69 -64 q 90 -64 134 -85 q 179 -106 197 -106 q 219 -106 276 -80 q 303 -67 347 -24 q 360 -12 370 -2 q 379 9 384 18 q 424 85 424 185 l 424 391 l 470 391 q 533 391 542 379 q 546 373 545 361 q 543 345 542 344 q 542 344 544 344 q 546 345 550 347 q 557 365 564 378 q 570 392 575 402 q 582 418 587 432 q 592 446 597 457 q 587 456 578 456 q 570 456 562 456 q 554 456 548 456 q 543 456 538 457 l 424 457 l 424 525 q 424 538 428 567 q 431 596 438 642 q 443 674 475 694 q 477 699 478 702 q 479 706 480 708 l 648 692 q 757 692 825 775 q 832 782 827 787 z"},"`":{"x_min":0,"x_max":254,"ha":254,"o":"m 245 645 q 199 709 156 818 q 148 824 136 831 q 125 838 111 846 q 100 852 63 870 q 20 890 16 890 q 8 890 7 884 l 7 878 q 21 865 32 856 q 42 847 50 840 q 75 813 100 782 q 126 750 153 714 q 160 703 166 695 q 171 687 175 682 q 204 641 234 641 l 243 641 q 243 643 245 645 z"},"k":{"x_min":0,"x_max":451,"ha":451,"o":"m 449 70 l 449 78 q 436 72 429 68 q 422 65 420 64 q 388 64 365 150 q 358 181 353 204 q 348 227 345 243 q 334 292 327 303 q 318 317 302 321 q 298 322 279 324 l 274 327 q 305 352 323 367 q 341 382 347 389 q 381 424 381 459 q 381 475 355 545 q 352 555 345 562 q 331 568 325 568 q 304 568 246 513 q 178 451 165 444 l 165 620 q 165 670 180 739 q 183 751 191 762 q 199 772 210 780 q 221 788 234 792 q 246 797 258 797 q 278 797 290 773 q 296 762 299 756 q 302 750 302 750 q 311 750 326 776 q 339 799 339 811 q 339 833 304 833 q 258 833 116 764 q 63 747 38 743 q 32 740 30 738 l 30 732 q 40 727 47 724 q 54 720 59 718 q 79 701 83 680 q 85 670 85 637 l 85 227 q 85 179 75 140 q 73 132 70 124 q 67 116 65 108 q 59 88 59 98 l 59 91 q 71 86 73 83 q 122 -14 151 -14 q 165 -14 248 66 l 248 73 q 248 75 247 75 q 244 75 243 74 q 241 74 232 69 q 223 64 221 64 q 196 64 165 124 l 165 314 q 165 307 171 396 q 182 444 223 475 q 245 493 254 493 q 273 493 290 449 q 303 416 303 396 q 303 364 267 336 q 259 331 242 320 q 224 310 196 294 q 188 289 188 281 q 188 285 192 274 q 198 272 204 270 q 210 267 217 263 q 245 247 254 216 q 262 191 267 174 q 272 157 275 146 q 282 118 286 100 q 290 82 292 73 q 298 45 312 20 q 329 -9 349 -9 q 358 -9 366 -4 q 371 0 383 9 q 395 18 412 34 q 449 65 449 70 z"},"u":{"x_min":0,"x_max":497,"ha":497,"o":"m 512 71 l 504 78 q 486 59 478 59 q 470 59 454 74 q 446 81 441 86 q 436 91 433 94 q 404 123 398 158 q 395 180 395 188 l 395 458 q 395 485 415 503 q 374 568 353 568 q 346 568 309 537 q 275 509 271 503 l 271 494 q 308 475 308 455 l 308 172 q 308 122 293 88 q 287 72 264 72 q 241 72 196 118 q 176 140 176 149 l 176 478 q 176 511 175 514 q 171 535 144 555 q 139 559 135 562 q 131 564 129 565 q 120 565 76 528 q 43 501 43 495 q 43 491 48 489 q 69 489 81 465 q 91 446 91 423 l 91 159 q 91 126 81 80 q 92 77 106 63 q 120 48 131 36 q 142 25 149 17 q 175 -9 193 -9 q 204 -9 251 32 l 312 87 l 326 58 q 331 47 340 36 q 348 25 361 15 q 389 -7 412 -7 q 418 -7 431 1 q 466 31 486 48 q 507 66 512 71 z"},"]":{"x_min":0,"x_max":293,"ha":293,"o":"m 192 -76 l 192 872 l 21 872 l 21 852 l 126 852 l 126 -55 l 22 -55 l 22 -76 z"},"U":{"x_min":0,"x_max":922,"ha":922,"o":"m 885 787 l 881 797 q 844 783 828 783 q 823 783 820 784 l 820 818 l 804 818 l 804 781 l 777 781 q 771 781 761 782 q 751 784 740 786 q 730 789 720 790 q 710 792 704 792 q 672 792 653 782 q 629 770 620 764 q 608 757 593 744 q 578 732 559 715 q 558 713 558 710 l 564 710 q 596 730 623 730 q 640 730 669 723 q 685 720 696 718 q 708 717 716 716 q 682 683 682 669 l 682 241 q 682 182 647 135 q 609 84 552 84 q 471 84 449 178 q 445 193 445 250 q 445 317 466 449 q 488 580 488 648 q 488 776 320 776 q 227 776 127 691 q 73 646 29 553 q -1 487 -1 398 q -1 377 2 351 q 6 325 23 302 q 43 276 67 276 q 83 276 90 289 q 95 295 112 331 q 129 367 129 372 q 129 374 127 378 q 114 371 106 371 q 89 371 70 390 q 40 418 40 481 q 40 527 55 568 q 81 632 136 672 q 194 715 261 715 q 333 715 374 676 q 414 638 414 566 q 414 470 400 442 q 390 443 384 444 q 377 444 373 444 q 316 444 266 373 q 262 366 260 361 q 258 356 256 352 q 258 352 259 351 q 284 378 306 378 q 313 378 322 376 q 331 374 340 370 q 348 367 356 362 q 363 358 366 353 q 377 334 377 302 q 377 292 376 277 q 376 262 375 242 q 374 222 374 207 q 373 192 373 182 q 373 79 420 26 q 442 1 490 1 q 537 1 593 53 q 640 96 680 159 q 681 160 686 160 q 688 148 690 140 q 692 131 693 126 q 701 92 714 62 q 741 1 775 1 q 791 1 801 11 l 804 10 l 804 -54 l 820 -55 l 820 35 q 827 45 832 52 q 838 60 842 65 q 864 96 869 113 l 863 113 q 840 99 827 99 l 820 99 l 820 743 q 848 762 864 772 q 880 783 885 787 z m 804 108 q 798 113 796 116 q 771 148 764 194 q 761 211 760 230 q 758 250 757 272 q 755 519 757 671 q 757 726 801 731 l 804 733 z"},"o":{"x_min":0,"x_max":374,"ha":374,"o":"m 331 162 q 321 176 321 182 l 321 458 q 321 465 324 494 q 327 522 327 511 q 327 515 321 520 l 311 520 l 303 520 q 291 520 253 540 q 218 559 208 572 q 205 576 199 576 l 192 574 q 170 555 155 542 q 140 529 131 521 q 118 512 108 506 q 99 499 93 494 q 69 477 58 461 q 56 457 57 450 q 60 439 60 435 l 60 190 q 60 148 54 114 q 46 87 42 81 q 42 77 44 75 l 58 75 q 113 -9 141 -9 q 159 -9 248 76 q 306 131 331 162 z m 244 137 q 244 69 212 69 q 206 69 181 88 q 135 125 135 182 l 135 505 q 164 483 192 468 q 219 453 244 443 z"},"N":{"x_min":0,"x_max":680,"ha":680,"o":"m 733 777 l 725 784 q 729 784 714 780 q 690 773 668 773 q 649 773 620 780 q 586 788 571 788 q 499 788 428 718 q 426 711 427 710 q 426 709 425 709 l 433 708 q 452 718 481 718 q 554 718 554 641 l 554 212 q 554 204 554 194 q 554 184 553 173 q 552 156 552 147 q 552 138 552 136 q 549 133 548 135 q 521 178 485 261 l 432 390 q 404 456 386 501 q 367 546 356 571 q 271 785 176 785 q 125 785 81 750 q 34 712 34 696 q 34 694 38 690 q 78 707 97 707 q 160 707 195 657 q 150 606 150 519 l 150 468 q 127 468 98 448 q 89 442 62 413 q 32 381 32 370 q 32 367 38 363 q 60 381 76 381 q 107 381 126 360 q 146 338 149 307 q 153 249 152 224 q 146 128 112 91 q 110 89 97 79 q 84 69 59 52 q 17 22 1 -6 q 2 -7 3 -8 q 4 -8 5 -9 q 28 5 51 5 q 73 5 112 -5 q 151 -15 174 -15 q 195 -15 201 -13 q 220 -4 248 18 q 252 22 262 31 q 272 40 289 56 q 293 60 291 63 q 290 64 287 64 q 284 64 283 63 q 274 59 271 59 q 262 55 236 55 q 198 55 176 61 q 128 71 126 77 q 206 189 206 363 q 206 382 204 410 q 203 439 201 477 q 199 515 198 544 q 197 572 197 591 q 197 617 202 642 q 203 643 204 644 q 205 644 206 645 q 235 609 263 548 l 385 247 q 395 222 403 202 q 411 182 417 168 q 487 2 559 2 q 575 2 587 7 q 598 14 611 24 q 624 35 638 51 q 666 83 682 101 q 680 103 679 106 q 678 108 671 110 q 646 79 625 79 q 603 79 578 100 l 578 658 q 578 676 586 702 q 590 701 594 702 q 599 702 606 703 q 635 706 664 727 q 690 747 705 758 q 720 768 724 770 q 728 772 730 774 q 732 776 733 777 z"},"+":{"x_min":0,"x_max":488,"ha":488,"o":"m 430 194 l 430 249 l 272 249 l 272 403 l 216 403 l 216 249 l 58 249 l 58 194 l 216 194 l 216 41 l 272 41 l 272 194 z"},"G":{"x_min":0,"x_max":748,"ha":748,"o":"m 645 634 q 645 698 573 745 q 513 784 457 784 q 418 784 375 753 q 340 730 316 714 q 292 697 278 688 q 269 681 257 663 q 248 648 248 604 l 250 561 q 251 540 252 523 q 252 506 252 493 q 251 492 251 491 q 251 490 250 489 q 235 492 208 471 q 182 450 178 434 q 223 423 236 401 q 246 385 246 347 q 246 262 200 222 q 202 220 204 218 q 206 217 207 216 q 219 221 224 225 q 333 315 333 358 l 333 671 q 333 721 381 721 q 432 721 490 683 q 555 641 561 587 q 563 572 564 560 q 565 547 566 537 q 623 578 630 585 q 645 601 645 634 z m 703 285 q 703 354 664 404 q 620 458 553 458 q 516 458 488 439 q 480 434 467 422 q 454 410 436 393 q 407 370 407 352 q 407 328 425 328 q 437 328 438 344 q 439 367 445 376 q 456 393 491 393 q 557 393 594 338 q 626 291 626 230 q 626 210 623 194 q 612 152 598 135 q 556 83 459 83 q 409 83 400 87 l 400 701 l 382 701 l 382 89 q 353 89 294 124 q 204 176 169 244 q 143 296 143 376 q 143 485 188 614 q 190 619 194 628 q 198 636 204 647 q 209 656 212 661 q 214 666 215 668 q 215 676 204 676 q 189 667 178 660 q 167 654 160 649 q 147 638 138 630 q 129 623 124 618 q 98 598 77 494 q 59 402 59 337 q 59 250 84 197 q 103 159 148 114 q 193 69 230 49 q 299 13 383 4 l 383 -53 l 400 -53 l 400 0 q 404 4 407 5 q 480 4 556 74 q 604 120 625 140 q 687 195 696 233 q 700 249 702 262 q 703 275 703 285 z"},"q":{"x_min":0,"x_max":420,"ha":420,"o":"m 533 -159 q 533 -146 522 -135 l 513 -135 q 499 -164 488 -174 q 472 -188 444 -188 q 401 -188 375 -163 q 349 -138 349 -96 l 349 440 q 349 446 350 460 q 352 473 356 494 q 357 506 375 520 l 371 523 q 369 523 363 523 q 357 523 349 522 q 331 522 280 545 q 229 568 226 568 q 216 568 169 531 q 143 509 128 498 q 112 486 108 484 q 72 467 55 468 q 48 467 48 458 q 48 467 54 433 q 58 412 60 398 q 61 383 61 375 l 61 156 q 61 122 52 86 q 52 85 50 82 q 48 80 48 78 l 48 68 q 48 65 52 64 l 56 63 q 68 42 96 20 q 128 -3 147 -3 q 159 -3 208 35 q 256 74 261 74 q 263 74 265 72 q 269 60 269 63 l 269 -57 q 269 -83 263 -105 q 261 -110 254 -126 q 247 -141 247 -144 q 247 -148 249 -150 q 266 -152 294 -160 q 322 -168 360 -182 q 432 -208 470 -208 q 533 -208 533 -159 z m 295 456 q 295 452 293 450 q 277 439 274 430 q 267 413 267 311 l 267 99 q 267 92 263 89 q 247 84 235 75 q 229 68 218 68 q 186 68 143 116 l 143 500 l 155 500 q 149 500 198 475 q 249 451 277 451 q 278 451 295 456 z"},"d":{"x_min":0,"x_max":408,"ha":408,"o":"m 372 516 q 372 523 322 556 q 311 563 302 570 q 294 576 287 583 q 222 653 217 734 q 217 736 216 740 q 216 743 215 748 q 214 753 214 756 q 214 760 214 762 q 214 791 225 815 q 238 845 265 845 q 287 845 287 825 q 287 822 286 816 q 286 811 286 808 l 298 808 q 300 808 308 814 q 315 821 316 824 q 320 832 320 843 q 320 876 279 876 q 263 876 242 866 q 222 856 213 844 q 205 834 200 827 q 195 820 192 816 q 146 754 146 653 q 146 624 160 587 q 165 576 168 569 q 171 562 173 558 q 156 548 144 540 q 131 533 123 528 q 100 511 85 500 q 70 488 62 481 q 28 456 28 448 q 28 445 30 443 q 32 443 37 440 q 42 438 44 438 q 60 442 60 349 l 60 191 q 60 164 49 123 q 49 121 44 111 q 40 101 40 99 q 40 96 43 92 q 51 94 56 94 q 63 94 80 76 q 87 69 92 64 q 97 59 100 55 l 129 26 q 137 17 142 10 q 148 2 153 -5 l 159 -5 q 209 38 230 57 q 253 75 269 87 q 285 99 293 106 q 306 116 315 122 q 324 129 330 134 q 355 152 356 167 q 355 164 355 209 l 355 445 q 355 463 366 498 q 372 519 372 516 z m 266 166 q 266 115 262 104 q 259 98 248 87 q 237 76 231 76 q 224 76 182 119 q 163 138 151 151 q 139 164 133 172 q 145 206 145 249 l 145 513 q 146 521 158 532 q 169 544 177 544 q 185 544 206 512 q 218 501 226 494 q 233 488 237 486 q 263 466 265 457 q 266 454 266 416 z"},"1":{"x_min":0,"x_max":293,"ha":293,"o":"m 265 56 l 265 62 q 262 61 251 61 q 229 61 191 95 q 192 393 194 455 q 195 490 196 519 q 198 548 201 571 q 204 596 204 589 q 204 593 198 598 l 190 606 q 160 662 131 662 q 118 662 108 656 q 63 630 28 591 q 28 591 30 587 q 54 595 57 595 q 90 595 116 523 q 117 487 117 443 q 117 400 115 349 q 113 276 112 232 q 112 189 111 174 q 103 114 102 108 q 81 85 66 68 q 50 52 39 41 q 43 41 51 42 q 59 42 63 42 q 86 42 124 17 q 164 -8 172 -8 q 184 -8 188 -6 q 214 13 233 28 q 252 44 265 56 z"},"5":{"x_min":0,"x_max":464,"ha":464,"o":"m 417 685 q 414 688 411 687 q 390 661 300 661 l 181 661 q 174 662 162 662 q 151 663 135 665 l 104 667 q 95 667 94 651 q 89 561 84 480 q 80 399 77 325 q 75 296 85 296 q 90 296 106 310 q 141 344 161 362 q 181 381 186 386 q 190 390 204 390 q 224 390 271 358 q 312 331 327 314 l 327 115 q 327 102 316 84 q 304 67 292 61 q 267 83 250 98 q 234 113 224 121 q 189 150 134 150 q 88 150 21 105 q 23 103 22 102 q 46 102 54 100 q 142 80 201 1 q 206 -8 208 -16 l 215 -16 q 243 7 271 30 q 299 53 327 77 q 349 96 369 114 q 389 133 406 153 q 415 162 414 167 l 414 382 q 403 383 393 391 q 387 396 382 400 q 378 403 375 405 q 295 467 271 467 q 258 467 197 412 q 138 357 122 357 q 95 357 97 393 q 99 442 102 486 q 105 531 108 571 l 253 573 q 277 575 294 576 q 310 578 318 580 q 349 586 354 592 q 397 652 417 685 z"}}}
